<?xml version="1.0" standalone="no"?>
<!DOCTYPE svg PUBLIC "-//W3C//DTD SVG 1.1//EN" "http://www.w3.org/Graphics/SVG/1.1/DTD/svg11.dtd" >
<svg xmlns="http://www.w3.org/2000/svg" xmlns:xlink="http://www.w3.org/1999/xlink" version="1.1">
<metadata></metadata>
<defs>
<font id="oliverregular" horiz-adv-x="1411" >
<font-face units-per-em="2048" ascent="1638" descent="-410" />
<missing-glyph horiz-adv-x="370" />
<glyph horiz-adv-x="0" />
<glyph unicode="&#xd;" horiz-adv-x="370" />
<glyph unicode=" "  horiz-adv-x="370" />
<glyph unicode="&#x09;" horiz-adv-x="370" />
<glyph unicode="&#xa0;" horiz-adv-x="370" />
<glyph unicode="!" horiz-adv-x="468" d="M138 111q0 59 41 97t101 38q52 0 93.5 -41t41.5 -92q0 -61 -43 -101t-105 -40q-49 0 -89 44.5t-40 94.5zM140 1328q-3 60 34.5 104.5t97.5 44.5q149 0 145 -125l-27 -740q-4 -111 -15 -150q-25 -87 -101 -87q-69 0 -91 87q-9 34 -13 143z" />
<glyph unicode="&#x22;" horiz-adv-x="744" d="M164 1412q0 164 119 164q53 0 84 -41q29 -37 29 -91q0 -111 -31 -273l-54 -272h-58l-56 256q-33 155 -33 257zM477 1413q0 162 117 162q115 0 115 -147q0 -106 -31 -265l-54 -264h-58l-56 256q-33 156 -33 258z" />
<glyph unicode="#" horiz-adv-x="1354" d="M77 494l51 163h242l69 211h-226l45 163h240l136 357h186l-122 -357h201l129 357h188l-121 -357h236l-53 -163h-241l-75 -211h233l-51 -159h-241l-128 -363h-189l125 359h-202l-132 -359h-190l126 359h-236zM564 657h203l76 211h-200z" />
<glyph unicode="$" horiz-adv-x="1198" d="M115 365q0 114 64 190q68 79 181 79q83 0 146 -50q67 -53 67 -134q0 -46 -26 -89q-29 -49 -72 -49q-14 0 -19 13q12 12 12 27q0 40 -33 40q-50 0 -50 -70q0 -75 76 -130q69 -49 148 -49v550q-190 70 -282 146q-133 111 -133 275t129 274q118 101 288 114l28 79h100 l-19 -79q336 -69 336 -281q0 -96 -53 -159q-57 -66 -152 -66q-54 0 -131 50v-130q109 -51 218 -103q110 -58 159 -131q61 -90 61 -236q0 -390 -442 -497v-80h-105v69q-174 25 -266 73q-118 62 -189 197q-41 80 -41 157zM436 1177q0 -62 64 -128q52 -54 120 -88l-19 363 q-70 0 -116 -38q-49 -40 -49 -109zM716 1304q-2 -33 17 -66q20 -38 51 -38q46 0 46 43q0 48 -114 81v-20zM718 158q69 1 117 87q40 74 40 149q0 159 -157 252v-488z" />
<glyph unicode="%" horiz-adv-x="1657" d="M93 1087q0 182 73 320q90 173 256 173q175 0 263 -162q70 -129 70 -320q0 -184 -71 -308q-88 -152 -259 -152q-170 0 -258 146q-74 122 -74 303zM241 -2l1043 1562h211l-1041 -1562h-213zM263 1186q0 -62 16 -113q23 -71 70 -71q57 0 57 70q0 31 -44 58q8 15 31 15 q40 0 75 -39t35 -79q0 -54 -36 -93.5t-90 -39.5q-53 0 -105 62l-3 -9q49 -135 158 -135q152 0 152 277q0 127 -28 220q-42 137 -135 137q-76 0 -120 -97q-33 -76 -33 -163zM968 431q0 181 74 320q91 171 257 171q175 0 263 -161q70 -129 70 -319q0 -184 -71 -309 q-87 -153 -259 -153q-170 0 -259 147q-75 123 -75 304zM1140 530q0 -63 16 -114q23 -72 70 -72q57 0 57 70q0 32 -44 59q7 13 36 13q39 0 72 -39.5t33 -78.5q0 -54 -36 -92.5t-90 -38.5q-53 0 -108 62l-2 -3q2 -55 55 -99q50 -42 106 -42q84 0 123 102q28 73 28 174 q0 119 -29 217q-40 140 -125 140q-84 0 -128 -91q-34 -72 -34 -167z" />
<glyph unicode="&#x26;" horiz-adv-x="1492" d="M103 334q0 133 89 257q41 57 187 203v17q-193 222 -193 466q0 105 44 186q183 -9 360 -9q293 0 579 24q17 -39 17 -76q0 -124 -138 -301q-10 -12 -233 -258q28 -23 62 -24q208 246 386 246q88 0 150.5 -69.5t62.5 -158.5q0 -81 -38 -139q-43 -67 -121 -67q-60 0 -102 29 q-50 32 -50 89q0 45 29 64q2 -1 9 -9t11 -8q34 0 34 46q0 29 -34 29q-45 0 -91 -75q-12 -21 -56 -116q416 -212 416 -450q0 -117 -80.5 -198.5t-197.5 -81.5q-90 0 -165 61q-80 64 -80 152q0 78 43 127.5t120 49.5q37 0 75 -26q42 -28 42 -63q0 -48 -28 -48q-9 0 -15 8.5 t-15 8.5q-17 0 -17 -30q0 -25 41 -25q80 0 80 81q0 63 -116 123q-86 36 -173 72q-97 -262 -149 -338q-114 -164 -312 -164q-180 0 -303 107q-130 112 -130 288zM439 327q0 -42 25 -74q27 -35 68 -35q81 0 137 140q36 104 72 209l-132 75q-84 -96 -114 -144q-56 -88 -56 -171 zM469 1217q29 -83 63 -127q31 -41 103 -97q143 101 208 224h-374z" />
<glyph unicode="'" horiz-adv-x="406" d="M105 1358q0 64 42 104t105 40q57 0 102 -49t45 -106q0 -172 -246 -335l-38 45q107 85 132 149q-142 41 -142 152z" />
<glyph unicode="(" horiz-adv-x="589" d="M189 595q0 81 1.5 243t1.5 244q0 163 75 277q87 135 244 135q52 0 119 -26q-86 -24 -116 -90q-22 -47 -22 -146q0 -118 -2.5 -353t-2.5 -352q0 -249 6 -362q7 -163 137 -199q-59 -15 -112 -15q-232 0 -298 229q-31 107 -31 415z" />
<glyph unicode=")" horiz-adv-x="589" d="M57 -34q91 26 118 101q17 46 17 161t2.5 342.5t2.5 341.5q0 241 -5 357q-7 163 -135 199q64 25 118 25q218 0 286 -228q34 -116 34 -400q0 -78 -1.5 -233.5t-1.5 -233.5q0 -447 -324 -447q-53 0 -111 15z" />
<glyph unicode="*" horiz-adv-x="572" d="M104 1290q21 23 60 85q68 -42 145 -57q-66 55 -130 75q25 46 40 109q44 -21 113 -20q-4 -41 -4 -57q0 -45 21 -80q9 51 9 70q0 22 -7 68q62 7 105 21q15 -32 49 -94q-106 -46 -118 -94q52 16 128 70q3 -7 68 -88l-59 -79h-7q-54 31 -132 49q8 -24 128 -77 q-28 -43 -42 -96q-38 7 -105 2q4 39 4 47q0 38 -19 103q-22 -63 -14 -148q-63 -4 -113 -15q-6 36 -30 99q109 50 111 85q-46 -16 -126 -66q-40 58 -75 88z" />
<glyph unicode="+" horiz-adv-x="1307" d="M162 396v280h402v394h283v-394h401v-276h-401v-400h-283v396h-402z" />
<glyph unicode="," horiz-adv-x="406" d="M100 137q0 67 42.5 108.5t109.5 41.5q55 0 98.5 -48.5t43.5 -103.5q0 -184 -249 -342l-34 49q81 63 127 145q-138 45 -138 150z" />
<glyph unicode="-" horiz-adv-x="699" d="M98 451q11 76 11 126q0 54 -11 137q163 -10 295 -10q147 0 299 10q-11 -79 -11 -128q0 -55 11 -135q-163 9 -287 9q-144 0 -307 -9z" />
<glyph unicode="." horiz-adv-x="406" d="M116 125q0 65 41.5 105.5t105.5 40.5q54 0 98.5 -42.5t44.5 -95.5q0 -60 -40 -103q-41 -46 -101 -46t-104.5 40.5t-44.5 100.5z" />
<glyph unicode="/" horiz-adv-x="1264" d="M175 -60l779 1562h213l-779 -1562h-213z" />
<glyph unicode="0" horiz-adv-x="1199" d="M80 685q0 305 122 535q151 285 430 285q292 0 437 -271q115 -214 115 -533q0 -307 -121 -512q-148 -251 -436 -251q-279 0 -425 247q-122 203 -122 500zM366 853q0 -105 26 -188q38 -119 116 -119q92 0 92 113q0 54 -70 100q11 24 50 24q68 0 127 -66.5t59 -134.5 q0 -93 -63.5 -155.5t-158.5 -62.5q-78 0 -167 105l-5 -10q1 -15 15 -42q46 -95 90 -135q60 -54 151 -54q150 0 216 169q46 117 46 297q0 210 -45 360q-70 227 -229 227q-128 0 -197 -159q-53 -122 -53 -269z" />
<glyph unicode="1" horiz-adv-x="1199" d="M222 1191q132 40 178.5 87t82.5 179q158 -16 162 -16q22 0 66.5 7.5t67.5 7.5q25 0 28 -44q-2 31 -2 -65q0 -78 -5.5 -233.5t-5.5 -232.5q0 -313 10 -658q2 -94 29 -138q3 -6 33 -35q26 -25 26 -33q0 -18 -36 -18q-24 0 -72 4t-73 4q-48 0 -149 -4q-94 -3 -150 -3l-9 4 l-1 9q0 13 26 37q30 29 34 36q35 59 35 592q0 216 -7 428q-53 -40 -111 -40q-134 0 -157 125z" />
<glyph unicode="2" horiz-adv-x="1199" d="M113 -2q51 42 59 177q10 177 67.5 265.5t214.5 166.5q361 176 361 395q0 91 -61.5 158t-151.5 67q-63 0 -108 -38.5t-45 -100.5q0 -32 21.5 -56t53.5 -24q35 0 35 40t-52 32l-4 17q0 72 98 72q58 0 96 -50q36 -46 36 -105q0 -111 -80 -182q-76 -68 -189 -68 q-137 0 -215 93q-73 86 -73 225q0 180 128 287q121 101 305 101q221 0 372 -128q161 -136 161 -352q0 -202 -165 -344q-38 -32 -307 -192q-165 -99 -165 -197q0 -88 106 -88q105 0 241 71h-24q-41 -2 -71.5 23.5t-30.5 66.5q0 59 37.5 107.5t95.5 48.5q52 0 52 -50 q0 -24 -46 -12l-17 -5l-3 -19q0 -28 38 -28q118 0 135 161q11 13 29 13q94 0 94 -126q0 -42 -13 -123.5t-13 -123.5q0 -79 41 -175q-265 14 -524 14t-519 -14z" />
<glyph unicode="3" horiz-adv-x="1199" d="M127 377q0 137 91.5 231.5t227.5 94.5q87 0 150 -49q68 -54 68 -139q0 -59 -36 -104q-38 -49 -96 -49q-21 0 -41 16t-20 37q0 16 24.5 43.5t24.5 50.5q0 20 -20 33.5t-40 13.5q-49 0 -78 -39q-26 -34 -26 -85q0 -79 65 -131q61 -49 141 -49q119 0 204 79.5t85 197.5 q0 176 -148 228q-5 2 -95 11q-69 7 -69 26l10 17q104 59 146 111q54 68 54 174q0 63 -42 114q-45 55 -107 55q-60 0 -108 -30q-55 -34 -55 -91q0 -18 14 -35t33 -17q34 0 40 21q10 36 15 42l13 1q26 2 42 -34q12 -28 12 -58q0 -85 -55 -148q-58 -67 -142 -67q-99 0 -157 79 q-52 71 -52 173q0 147 123 252q118 101 268 101q159 0 288 -100q139 -108 139 -263q0 -115 -102 -237q120 -76 173 -166q55 -95 55 -232q0 -225 -145 -370t-371 -145q-195 0 -343 119q-158 127 -158 317z" />
<glyph unicode="4" horiz-adv-x="1199" d="M88 621q0 18 91 153q66 97 147 243q68 125 136 251q58 103 69 119q48 66 108 80q15 3 26 3q74 0 129.5 -48.5t55.5 -121.5q0 -138 -152 -294q-57 -59 -266 -225q62 -58 147 -58q96 0 202 51q127 60 127 144q0 39 -56 49v6q-3 31 35 49q31 15 67 15q86 0 153 -67.5 t67 -152.5q0 -128 -78 -184q-52 -37 -157.5 -48t-120.5 -21.5t-15 -190.5q0 -243 33 -293q4 -5 33 -32q25 -22 25 -31q0 -18 -34 -18q-36 0 -110.5 5t-112.5 5q-33 0 -102.5 -5t-104.5 -4h-16l-9 4l-1 11q0 12 25 34q31 28 35 34q29 46 29 302q0 132 -14 164q-15 36 -78 36 q-15 0 -73.5 -3t-104.5 -3q-135 0 -135 42z" />
<glyph unicode="5" horiz-adv-x="1199" d="M140 371q0 129 75 216q78 93 205 93q100 0 182 -54q93 -62 93 -156q0 -64 -26 -110q-32 -55 -91 -55q-67 0 -71 86q42 1 42 43q0 36 -40 36q-55 0 -55 -93q0 -69 49 -111q46 -41 116 -41q102 0 160 83q51 73 51 179q0 144 -93.5 236t-238.5 92q-50 0 -266 -53 q-15 6 -15 22q0 58 12 176.5t12 178.5q0 133 -19 337l8 9q154 -18 309 -36q185 -21 309 -21q147 0 219 57q18 -9 31 -59q11 -40 11 -70q0 -96 -54.5 -153.5t-150.5 -57.5q-83 0 -200 45q-21 9 -189 85q9 -78 9 -124q0 -71 -19 -169q111 19 167 19q212 0 347 -177 q124 -162 124 -380q0 -226 -146 -365.5t-374 -139.5q-198 0 -336 116q-147 122 -147 316z" />
<glyph unicode="6" horiz-adv-x="1199" d="M118 656q0 312 120 549q151 298 433 298q129 0 243 -77q127 -85 127 -209q0 -83 -59 -143.5t-142 -60.5q-57 0 -106 26q-58 32 -58 85q0 20 10 40l27 -3q53 0 53 54q0 37 -32 64q-31 24 -69 24q-229 0 -229 -537q0 -541 262 -541q95 0 149 62q51 58 51 154q0 49 -23 95 q-28 57 -72 57q-63 0 -63 -54q0 -44 45 -44q7 0 14 3q2 -40 -32 -63q-30 -20 -70 -20q-61 0 -106 65q-40 58 -40 121q0 128 81 211.5t209 83.5q162 0 253 -137q79 -118 79 -288q0 -227 -145 -378q-147 -154 -373 -154q-289 0 -426 226q-111 183 -111 491z" />
<glyph unicode="7" horiz-adv-x="1199" d="M156 1468q0 18 23 17l498 -5q176 0 245 2q28 0 88 10q57 9 87 9q35 0 45 -21q6 -12 6 -52q0 -171 -158 -375l-294 -342q-158 -201 -158 -369q0 -54 33 -101q38 -52 89 -52q64 0 64 50q0 31 -30 31q-17 0 -32 -7q-24 23 -24 62q0 66 50 114.5t117 48.5q96 0 158 -58 t62 -153q0 -158 -126 -252q-115 -85 -280 -85q-188 0 -309 116t-121 303q0 181 135 346q36 44 276 267q171 160 222 292q-122 -84 -195 -84q-43 0 -123 23t-122 23q-135 0 -144 -124h-59q-1 56 -12 184q-11 118 -11 182z" />
<glyph unicode="8" horiz-adv-x="1199" d="M120 440q0 132 62 215q54 74 180 136q-172 105 -172 285q0 187 137 295q125 98 318 98q186 0 302 -93q126 -101 126 -283q0 -100 -44 -168q-32 -50 -122 -127q246 -79 246 -340q0 -229 -150.5 -374t-380.5 -145q-225 0 -363.5 138.5t-138.5 362.5zM427 496q0 -45 40 -74 q36 -26 83 -26q78 0 78 54q0 26 -28 55q9 4 23 4q45 0 76.5 -30t31.5 -75q0 -62 -43 -111.5t-106 -49.5q-51 0 -116 44l-1 -4q-2 -41 64 -74q57 -28 105 -28q107 0 168 83q54 74 54 185t-53 182q-59 81 -166 81q-90 0 -150 -62.5t-60 -153.5zM480 1096q0 -64 37 -119 q42 -61 104 -61q157 0 157 187q0 70 -34 124q-40 63 -106 63q-158 0 -158 -194z" />
<glyph unicode="9" horiz-adv-x="1199" d="M115 1018q0 210 148 343q144 129 357 129q278 0 418 -224q118 -186 118 -480q0 -308 -119 -547q-150 -300 -428 -300q-165 0 -284 105q-125 110 -125 272q0 97 53 173q60 86 154 86q75 0 132 -41q64 -46 64 -119q0 -77 -64 -77l-24 10l4 21q0 23 -21 23q-49 0 -49 -56 q0 -42 38 -74t82 -32q160 0 232 219q48 147 48 353q0 158 -41 277q-59 171 -186 171q-91 0 -147.5 -59t-56.5 -151q0 -41 29 -79q31 -41 72 -41q43 0 73 26t30 69q0 34 -28 59q7 23 38 23q44 0 75 -50q27 -43 27 -89q0 -124 -84.5 -203t-208.5 -79q-143 0 -236 101 q-90 98 -90 241z" />
<glyph unicode=":" horiz-adv-x="406" d="M112 125q0 65 41.5 105.5t106.5 40.5q53 0 97.5 -42.5t44.5 -95.5q0 -59 -41 -103.5t-101 -44.5t-104 40.5t-44 99.5zM112 905q0 64 41.5 105t106.5 41q53 0 97.5 -43t44.5 -96q0 -58 -41.5 -103.5t-100.5 -45.5t-103.5 41t-44.5 101z" />
<glyph unicode=";" horiz-adv-x="406" d="M111 137q0 67 42.5 108.5t110.5 41.5q54 0 97.5 -48.5t43.5 -103.5q0 -183 -247 -342l-35 49q80 63 126 145q-138 45 -138 150zM116 921q0 59 38.5 102t96.5 43q62 0 107 -37q48 -40 48 -100q0 -59 -41 -104t-100 -45t-104 41t-45 100z" />
<glyph unicode="&#x3c;" horiz-adv-x="1026" d="M128 436v210l858 317v-225l-552 -197l552 -196v-227z" />
<glyph unicode="=" horiz-adv-x="1309" d="M106 227v237h1172v-237h-1172zM106 614v239h1172v-239h-1172z" />
<glyph unicode="&#x3e;" horiz-adv-x="1026" d="M136 118v228l552 195l-552 197v225l858 -317v-210z" />
<glyph unicode="?" horiz-adv-x="952" d="M119 1162q0 163 130 258q117 85 287 85q176 0 278 -93q106 -97 106 -270q0 -184 -114 -294q-49 -47 -211 -132q-114 -60 -114 -123q0 -28 20.5 -51.5t48.5 -23.5q53 0 53 43q0 22 -37 42q2 64 109 64q49 0 88.5 -40t39.5 -89q0 -101 -97 -160q-83 -51 -192 -51 q-116 0 -207 61q-104 69 -104 180q0 140 107 224q99 62 198 123q107 78 107 204q0 55 -34 109q-39 60 -91 60q-97 0 -97 -79q0 -47 42 -47q18 0 38 14q48 -32 48 -91q0 -67 -60 -113q-55 -43 -125 -43q-97 0 -157 68t-60 165zM422 125q0 65 41.5 106t106.5 41q53 0 97 -43 t44 -96q0 -60 -39 -104q-42 -45 -102 -45t-104 40.5t-44 100.5z" />
<glyph unicode="@" horiz-adv-x="1385" d="M96 554q0 294 219 480q208 176 508 176q235 0 395 -121q175 -134 175 -361q0 -171 -88 -305q-101 -154 -264 -154q-150 0 -172 140q-85 -138 -226 -138q-105 0 -167.5 67.5t-62.5 172.5q0 150 98 276q105 136 250 136q130 0 184 -112l26 87h192q-38 -122 -76 -243 q-51 -170 -51 -235q0 -54 53 -54q109 0 173 139q52 111 52 235q0 187 -159 296q-140 97 -336 97q-241 0 -405 -178q-160 -173 -160 -415q0 -234 151 -376q148 -140 384 -140q217 0 446 137l41 -58q-261 -164 -528 -164q-277 0 -461 168q-191 173 -191 447zM617 446 q0 -33 19.5 -58.5t52.5 -25.5q86 0 152 149q55 125 55 225q0 37 -22 64t-58 27q-82 0 -146 -154q-53 -129 -53 -227z" />
<glyph unicode="A" d="M69 15q0 11 12 19q86 62 107 86q30 35 63 126l271 747q43 117 43 185q0 76 -49 76q-51 0 -51 -52q0 -33 44 -43q-14 -110 -98 -110q-58 0 -103 69q-40 61 -40 122q0 141 108 225q99 77 245 77q161 0 243 -104q57 -72 103 -251l206 -789q53 -203 120 -203q68 0 68 77 q0 20 -13 41.5t-15 29.5l13 6q54 -3 84 -57q24 -45 24 -104q0 -108 -89 -181q-84 -69 -195 -69q-118 0 -180 92q-52 85 -103 170q-79 92 -239 92q-77 0 -137 -50q-63 -53 -63 -131q0 -36 50 -60.5t50 -40.5q0 -11 -19 -11q-37 0 -111 5t-111 5q-33 0 -99 -5t-99 -5 q-32 0 -39 5zM603 527q0 -39 42 -49q16 -4 74 -4q70 0 90 29v12q0 6 -93 334q-35 -80 -70 -159q-43 -105 -43 -163z" />
<glyph unicode="B" horiz-adv-x="1254" d="M70 11q80 57 100 101q15 34 19 142q28 946 28 961q0 83 -25 123q-19 30 -94 84q0 10 16 10q34 0 103 -8.5t104 -8.5q82 0 243 21t241 21q123 0 203 -84t80 -208q0 -122 -75 -201q-47 -51 -180 -125l67 1h10q317 0 317 -392q0 -192 -100 -340q-114 -168 -298 -168 q-109 0 -186 69q-81 71 -81 179q0 71 44 123q46 56 116 56q79 0 79 -68q-44 -20 -54 -29q-23 -18 -23 -54q0 -16 15.5 -29t30.5 -13q101 0 101 184q0 136 -58 235q-69 119 -195 119q-80 0 -108 -49q-20 -35 -20 -122l-1 -303v-59q0 -49 1 -58q6 -58 38 -108v-9q-7 -2 -20 -2 q-28 0 -84 6.5t-84 6.5q-36 0 -116 -8q-66 -6 -106 -6h-11l-31 1zM500 950q0 -88 71 -88q98 0 158 79q55 73 55 174q0 78 -45.5 125.5t-123.5 47.5q-23 0 -42 -4q-53 -9 -66 -102q-3 -27 -3 -141q0 -16 -2 -47t-2 -44z" />
<glyph unicode="C" horiz-adv-x="1687" d="M128 748q0 327 232 543q227 211 558 211q287 0 504 -180q231 -191 231 -471q0 -180 -96 -298q-103 -127 -280 -127q-128 0 -221 76q-98 82 -98 208q0 88 52 140.5t140 52.5q43 0 80 -32t37 -74q0 -27 -9 -46l-12 1h-5q-42 0 -42 -61q0 -15 17 -28.5t32 -13.5q97 0 97 170 q0 192 -138 339q-141 150 -331 150q-198 0 -304 -161q-92 -138 -92 -345q0 -237 100 -432q124 -242 339 -242q71 0 121 30q60 36 60 102q0 10 -5.5 29t-5.5 29q0 16 18 16q32 0 95 -18.5t97 -18.5q46 0 130 31t118 32l7 -15q-52 -91 -105 -182q-59 -92 -152 -141 q-159 -83 -411 -83q-342 0 -554 236q-204 228 -204 573z" />
<glyph unicode="D" horiz-adv-x="1607" d="M125 223q0 116 61 198q68 90 180 90q115 0 191 -86q58 -79 115 -159q73 -85 179 -85q172 0 273 183q84 152 84 339q0 240 -87 398q-108 200 -329 200q-150 0 -257 -89q-115 -94 -115 -240q0 -38 22 -66q24 -31 61 -31q46 0 75 31t29 78q0 70 -72 86q23 57 95 57 q79 0 132 -80q48 -71 48 -153q0 -140 -92.5 -227t-233.5 -87q-145 0 -237 93.5t-92 237.5q0 67 25.5 198t25.5 198q0 55 -27.5 98t-27.5 44q0 20 50 20q25 0 75 -4.5t75 -4.5q80 0 238.5 16.5t238.5 16.5q330 0 545 -229q210 -224 210 -556q0 -302 -185 -528 q-197 -241 -493 -241q-241 0 -347 129q-31 55 -62 109q-44 80 -78 80q-54 0 -54 -53q0 -44 45 -44q17 0 55 26q6 -35 6 -54q0 -69 -42.5 -111.5t-111.5 -42.5q-82 0 -139 84q-52 76 -52 161z" />
<glyph unicode="E" horiz-adv-x="1169" d="M121 15q0 11 25 34q31 28 35 34q30 47 36 290q1 13 1 317q0 271 -7 518q-3 102 -33 145q-3 4 -33 30q-24 21 -24 32q0 16 43 16q30 0 92 -5t93 -5q83 0 246 18.5t244 18.5q82 0 132 -38q56 -43 56 -122q0 -107 -86 -179q-82 -68 -191 -68q-35 0 -74 11q-53 14 -54 38 q78 46 78 109q0 102 -116 102q-41 0 -56 -13q-17 -110 -17 -312v-38q95 -107 221 -107q156 0 248 134q17 -67 17 -127q0 -111 -64 -190q-69 -84 -178 -84q-96 0 -170 64q-36 36 -73 72q-6 -9 -6 -103q0 -462 174 -462q46 0 82 31.5t36 76.5q0 29 -20 56t-47 27 q-24 0 -67 -21q51 169 242 169q119 0 182 -74q60 -69 60 -189q0 -135 -115 -201q-92 -54 -238 -54q-72 0 -214.5 21.5t-214.5 21.5q-31 0 -101 -6q-54 -4 -88 -4h-13l-33 1l-8 4z" />
<glyph unicode="F" horiz-adv-x="1007" d="M104 13q0 14 24 35q30 27 33 32q31 48 37 294q1 17 1 320q0 269 -7 514q-3 96 -29 140q-4 6 -34 34q-25 23 -25 33q0 17 37 17q47 0 140.5 -6.5t141.5 -6.5q148 0 260 18q132 20 149 20q75 0 125 -40q54 -44 54 -118q0 -107 -86 -179q-82 -69 -192 -69q-35 0 -75 11 q-54 15 -55 38q80 47 80 109q0 102 -117 102q-41 0 -55 -13q-19 -114 -19 -213q0 -240 234 -240q146 0 236 130q17 -66 17 -128q0 -109 -65 -189q-70 -84 -177 -84q-95 0 -170 65q-37 35 -73 71q-5 -7 -5 -123q0 -446 35 -503q4 -6 34 -34q26 -25 26 -33q0 -18 -19 -18 q-36 0 -110.5 5t-111.5 5q-34 0 -105 -5q-59 -4 -95 -4h-13h-16l-8 4z" />
<glyph unicode="G" horiz-adv-x="1679" d="M128 694q0 317 189 554q202 255 513 255q110 0 219 -47q68 -30 154 -88q70 -47 83 -47q23 0 41.5 19t18.5 42q0 33 -39 66q34 24 85 24q55 0 99 -27q51 -31 51 -83q0 -22 -10 -64t-10 -64q0 -29 13 -79q-114 -95 -219 -95q-75 0 -227 105t-222 105q-179 0 -284 -150 q-94 -132 -94 -316q0 -228 107 -411q127 -217 339 -217q165 0 286 133q117 130 117 296q0 137 -90 137q-53 0 -53 -54q0 -31 32 -44q28 -11 59 -4q-9 -178 -171 -178q-80 0 -141 75q-58 71 -58 153q0 141 94.5 236.5t236.5 95.5q174 0 290 -118.5t116 -292.5 q0 -278 -244 -480q-231 -191 -516 -191q-311 0 -538 223t-227 531z" />
<glyph unicode="H" horiz-adv-x="1341" d="M106 13q0 14 24 35q29 27 33 32q31 49 37 294q1 9 1 320q0 260 -7 514q-3 98 -31 142q-3 6 -33 33q-24 22 -24 32q0 18 25 18q35 0 106.5 -5.5t107.5 -5.5q31 0 100 5q56 5 89 5h11l30 -1l9 -4l2 -11q0 -12 -25 -34q-31 -26 -35 -32q-30 -46 -30 -146q0 -288 220 -288 q221 0 221 275q0 111 -32 159q-3 5 -33 31q-25 22 -25 32q0 18 25 18q35 0 106.5 -5.5t107.5 -5.5q34 0 101 5t100 5q32 0 40 -5l2 -11q0 -12 -25 -34q-30 -27 -34 -32q-31 -48 -37 -296q0 11 0 -322q0 -266 6 -510q3 -98 33 -143q3 -5 33 -31q24 -21 24 -31q0 -18 -19 -18 q-37 0 -112 5t-112 5q-31 0 -99 -5q-55 -5 -88 -5h-11l-31 1l-9 4l-1 10q0 12 26 32q32 25 35 29q26 34 30 135q0 -2 0 147q0 183 -27 251q-48 118 -202 118q-143 0 -190 -129q-27 -74 -27 -254q0 -227 38 -271q2 -3 32 -26q24 -18 24 -28q0 -17 -19 -17q-37 0 -111 5 t-111 5q-34 0 -105 -5q-59 -4 -95 -4h-13h-16l-9 4z" />
<glyph unicode="I" horiz-adv-x="584" d="M100 14q0 12 26 37q31 29 35 36q34 61 34 600q0 269 -7 521q-2 94 -28 138q-4 6 -34 35q-26 24 -26 33q0 19 25 19q36 0 107.5 -5.5t106.5 -5.5q31 0 100 5q56 5 90 5h11l30 -1l9 -4l2 -11q0 -12 -25 -33q-30 -27 -33 -32q-33 -48 -39 -292q0 8 0 -320q0 -273 7 -518 q2 -92 29 -136q4 -6 34 -35q27 -25 27 -33q0 -18 -20 -18q-36 0 -110 5t-112 5q-37 0 -113.5 -4.5t-115.5 -4.5l-8 4z" />
<glyph unicode="J" horiz-adv-x="1020" d="M124 364q0 93 50 167q56 83 146 83q80 0 139 -56t59 -136q0 -45 -30 -108q-16 35 -56 35q-84 0 -84 -108q0 -41 32 -73.5t73 -32.5q42 0 69 15q85 47 89 263q4 223 4 457q0 244 -4 414q-3 91 -43 152q-38 58 -39 55l1 9l20 4q157 -10 186 -10q39 0 122 6q69 5 109 5h13 h19l10 -5q0 -2 -37 -70q-39 -71 -42 -162q-5 -126 -5 -302v-104q5 -399 5 -405q0 -225 -88 -358q-105 -158 -322 -158q-178 0 -289 124q-107 119 -107 299z" />
<glyph unicode="K" horiz-adv-x="1377" d="M79 6v6l2 7q86 53 113 122q20 51 23 167q5 269 5 499q0 259 -6.5 428t-117.5 237l-2 7l8 14q138 -22 225 -22q49 0 141.5 15t118.5 15q12 0 11 -16l-4 -7q-77 -79 -100 -150q-19 -56 -19 -165v-11l2 -127q224 480 559 480q147 0 233 -98q81 -94 81 -243q0 -144 -77 -256 q-87 -125 -226 -125q-81 0 -143 55t-62 135q0 95 53 126q57 -66 97 -66q49 0 81.5 29t32.5 78q0 51 -44 84q-41 30 -94 30q-106 0 -195 -134q-81 -122 -81 -234q0 -47 52 -130q42 -61 84 -121l305 -449q38 -56 98 -97q23 -16 119 -68l6 -15l-14 -8q-267 15 -267 17h3 q-139 0 -269 -17l-10 8l4 15q53 24 53 59q0 40 -180 315q-98 147 -197 294l-2 -279q0 -26 -1 -71q-1 -41 -1 -59q0 -80 20 -128q25 -56 101 -131l4 -7q2 -15 -11 -15q-41 0 -123.5 11t-124.5 11q-111 0 -256 -23z" />
<glyph unicode="L" horiz-adv-x="1164" d="M100 14q0 12 25 36q31 29 35 35q35 58 35 606q0 275 -7 517q-2 97 -30 140q-3 6 -33 33q-25 24 -25 33q0 19 25 19q36 0 107.5 -5.5t106.5 -5.5q36 0 113 5q61 4 98 4h14h21l9 -4l2 -11q0 -11 -26 -35q-30 -29 -34 -36q-37 -61 -37 -610q0 -120 3 -244q5 -164 21 -217 q35 -122 152 -122q120 0 197 107q70 97 70 222q0 132 -66 132q-58 0 -58 -78q0 -20 8.5 -58.5t8.5 -57.5q0 -50 -33.5 -81.5t-83.5 -31.5q-47 0 -88.5 42.5t-41.5 89.5q0 54 33 55q1 -1 18 -35q13 -28 45 -28q35 0 35 40q0 21 -41 126t-41 169q0 98 67 173.5t163 75.5 q127 0 195 -96q59 -85 59 -217q0 -77 -21.5 -230.5t-21.5 -230.5q0 -116 33 -162q3 -5 33 -31q25 -22 25 -33q0 -17 -16 -17q-72 0 -217.5 6t-219.5 6h-108q-66 0 -215 -5q-119 -5 -192 -5h-23l-68 1l-8 4z" />
<glyph unicode="M" horiz-adv-x="1779" d="M95 1243q0 112 97 189q91 72 207 72q164 0 255 -94q67 -69 130 -244l161 -439l126 312q90 232 90 300q0 32 -23.5 52.5t-23.5 26.5l2 11l22 4q31 0 94 -6t94 -6q45 0 140 6q80 6 126 6h13h23l9 -4l2 -11q0 -11 -29 -28q-37 -21 -39 -24q-36 -34 -36 -115q0 -24 4 -55 q49 -468 92 -824q25 -205 67 -278q4 -6 36 -42q29 -32 29 -38q0 -16 -35 -16q-24 0 -72 5t-73 5q-42 0 -135 -5q-70 -3 -115 -3h-21h-29l-8 4l-1 6q0 20 23 39q33 26 44 45q24 39 24 108q0 10 -4 35l-83 595l-343 -856l-349 858q-24 -162 -49 -323q-29 -199 -29 -322 q0 -85 35 -122q17 -12 33 -24q23 -18 23 -30q0 -15 -42 -15q-22 0 -66.5 4.5t-67.5 4.5q-36 0 -110 -5q-62 -4 -99 -4h-14h-18l-9 4l-1 12q0 8 22 26q27 22 29 25q32 39 56 172q42 225 119 813q7 57 7 97q0 83 -42 83q-50 0 -50 -51q0 -31 57 -58l4 -18q0 -40 -37 -64 q-31 -21 -75 -21q-76 0 -125 77q-42 67 -42 148z" />
<glyph unicode="N" horiz-adv-x="1313" d="M116 14v-1q4 0 42 58q42 65 46 166q7 155 7 457q0 271 -8 514q-3 98 -28 140q-4 6 -34 34q-25 24 -25 33q0 18 19 18q42 0 126.5 -5.5t126.5 -5.5q33 0 106 5q58 5 94 5h11l33 -1l9 -4l1 -11q0 -9 -28 -32.5t-28 -72.5q0 -70 171 -388q113 -202 225 -405q0 261 14 457 q2 29 18 96q16 62 16 97q0 58 -53 58q-43 0 -43 -49q0 -48 56 -50l6 -11q1 -39 -40 -66q-36 -25 -77 -25q-75 0 -126 74q-45 66 -45 144q0 109 83 186q80 75 190 75q120 0 190 -74t70 -195q0 -25 -6 -71q-7 -49 -8 -71q-26 -896 -26 -926q0 -74 33 -108q3 -2 34 -20 q24 -15 24 -25q0 -16 -31 -16q-35 0 -107 5.5t-108 5.5q-35 0 -105 -5t-105 -5t-42 5l-2 10q0 10 27 29t27 59q0 104 -414 824q-5 -160 -5 -331v-268q6 -202 38 -248q3 -4 33 -31q24 -22 24 -31q0 -17 -38 -17q-21 0 -61 4t-61 4q-34 0 -106 -4q-59 -4 -96 -4h-15h-20l-8 4z " />
<glyph unicode="O" horiz-adv-x="1723" d="M121 771q0 328 215 532q211 202 544 202q334 0 573 -228q242 -232 242 -562q0 -324 -231 -550.5t-557 -226.5q-352 0 -573 243q-213 235 -213 590zM462 804q0 -241 114 -426q134 -218 362 -218q178 0 298 148q111 138 111 320q0 28 -3 50q-108 -312 -365 -312 q-131 0 -216 102q-80 96 -80 229q0 121 78 214q83 100 202 100q63 0 108 -36q49 -38 49 -99q0 -118 -64 -118h-6l-9 1q-42 65 -73 65q-86 0 -86 -89q0 -52 50 -84q43 -28 98 -28q109 0 180 82q67 78 67 189q0 179 -115.5 288t-296.5 109q-198 0 -306 -149q-97 -133 -97 -338 z" />
<glyph unicode="P" horiz-adv-x="1250" d="M110 14q0 13 24 35q30 27 33 33q38 60 38 603q0 270 -7 520q-3 102 -32 146q-3 5 -32 32q-24 22 -24 32q0 17 37 17q32 0 98.5 -5t99.5 -5q85 0 253.5 17.5t251.5 17.5q172 0 272 -115q94 -109 94 -284q0 -174 -93 -307q-104 -149 -271 -149q-122 0 -206 64 q-91 71 -91 188q0 79 54 144q57 69 135 69q66 0 80 -36q-75 -14 -75 -58q0 -43 54 -43q110 0 110 145q0 112 -63.5 179.5t-175.5 67.5q-79 0 -122 -38q-48 -43 -57 -210v-236v-195q0 -298 0 -292q5 -224 37 -271q3 -5 33 -31q25 -23 25 -32q0 -18 -19 -18q-37 0 -111 5 t-111 5q-34 0 -107 -5q-58 -4 -93 -4h-13h-16l-9 4z" />
<glyph unicode="Q" horiz-adv-x="1674" d="M120 715q0 356 220 570.5t580 214.5q287 0 499 -184q221 -192 221 -475q0 -154 -62 -282q-77 -161 -213 -161q-44 0 -70 37q-23 33 -23 78q0 48 20.5 143t20.5 143q0 201 -112 347q-122 160 -317 160q-200 0 -312 -158q-100 -140 -100 -347q0 -138 36 -271 q42 -155 120 -241q137 -151 236 -151q47 0 88 20q46 -26 46 -79q0 -75 -99 -111q-71 -26 -163 -26q-190 0 -365 167q-160 152 -216 345q-35 119 -35 261zM654 454q0 116 68 190t184 74q165 0 250 -167q14 -27 103 -310q52 -168 138 -168q59 0 59 51q0 52 -61 52l-3 14 q0 54 45 87q41 31 96 31q71 0 118 -57q44 -54 44 -127q0 -123 -77.5 -202.5t-201.5 -79.5q-155 0 -255 137q-14 19 -134 254q-69 136 -151 136q-47 0 -65.5 -44t-52.5 -44q-48 0 -79 66q-25 53 -25 107z" />
<glyph unicode="R" horiz-adv-x="1245" d="M104 13q0 13 24 36q30 27 34 33q30 48 36 290q1 14 1 318q0 273 -7 518q-3 100 -31 143q-4 6 -33 32q-24 22 -24 32q0 17 37 17q33 0 99 -5t99 -5q85 0 253.5 17.5t252.5 17.5q172 0 271 -115q94 -109 94 -284q0 -174 -92 -307q-105 -149 -272 -149q-114 0 -201 62 q-97 69 -97 179q0 85 51 152q56 72 140 72q65 0 79 -36q-75 -14 -75 -58q0 -43 54 -43q110 0 110 145q0 112 -64 179.5t-175 67.5q-79 0 -121 -38q-48 -43 -57 -210q-1 -7 -1 -236v-195q0 -299 0 -292q6 -224 37 -271q4 -5 34 -31q24 -23 24 -32q0 -18 -19 -18 q-36 0 -110.5 5t-111.5 5q-34 0 -105 -5q-59 -4 -95 -4h-13h-16l-8 4zM513 511q0 116 98 116q66 0 171 -108q87 -100 175 -200q95 -108 136 -108q30 0 30 32q0 25 -20 56q162 -14 162 -143q0 -96 -81 -158q-75 -58 -173 -58q-176 0 -306 156q-67 81 -125 196 q-67 135 -67 219z" />
<glyph unicode="S" horiz-adv-x="1232" d="M123 341q0 129 81.5 220.5t209.5 91.5q120 0 207 -60q98 -68 98 -183q0 -134 -116 -155l1 14q0 67 -62 67q-84 0 -84 -81q0 -51 53 -82q45 -26 100 -26q108 0 185 97q72 90 72 200q0 161 -171 248q-159 69 -317 138q-171 100 -171 293q0 176 150 284q135 97 319 97 q148 0 261 -68q133 -81 133 -220q0 -103 -54 -169q-58 -72 -159 -72q-72 0 -130 46q-63 49 -63 120q0 26 7 61q41 -21 57 -21q25 0 45 18t20 42q0 34 -31 57.5t-66 23.5q-74 0 -127.5 -48.5t-53.5 -122.5q0 -17 5 -36q30 -115 212 -193q270 -115 311 -145q160 -115 160 -335 q0 -237 -183 -377q-167 -126 -413 -126q-198 0 -334 100q-152 111 -152 302z" />
<glyph unicode="T" horiz-adv-x="1443" d="M74 1457q355 -31 777 -31q329 0 597 31q-58 -50 -58 -215q0 -35 9 -103t9 -103q0 -93 -47 -155q-52 -67 -143 -67q-82 0 -140.5 60.5t-58.5 142.5q0 101 88 189q9 -58 61 -58q61 0 61 62q0 66 -88 66q-53 0 -113 -46q-123 -92 -123 -355q0 -485 6 -655q4 -101 34 -143 q3 -4 32 -29q24 -21 24 -31q0 -18 -19 -18q-37 0 -111 5t-111 5q-38 0 -115 -4q-73 -5 -114 -5l-9 4l-1 11q0 11 25 34q30 28 34 34q37 58 37 638q0 235 -25 339q-51 216 -213 216q-87 0 -87 -70q0 -58 56 -58q57 0 67 58q88 -90 88 -177q0 -84 -52 -147q-56 -68 -138 -68 q-96 0 -149 64q-50 59 -50 156q0 36 8.5 106.5t8.5 105.5q0 161 -57 211z" />
<glyph unicode="U" horiz-adv-x="1305" d="M110 1415q0 18 25 18q35 0 106.5 -5.5t107.5 -5.5q34 0 106 5q58 4 93 4h13h18l9 -4l2 -11q0 -12 -25 -34q-30 -27 -34 -32q-39 -60 -39 -617q0 -18 -1 -65t-1 -73q0 -190 40 -288q57 -143 206 -143q239 0 239 382q0 66 1 196.5t1 195.5q0 165 2 165v-2q-8 123 -53 123 q-55 0 -55 -48q0 -45 36.5 -52t36.5 -25q0 -43 -36 -70q-33 -23 -78 -23q-88 0 -145 88q-48 77 -48 169q0 106 76 174q73 67 181 67q209 0 283 -193q46 -119 46 -368q0 -106 -9 -317.5t-9 -316.5q0 -188 33 -233q3 -4 34 -29q25 -21 25 -31l-2 -12q-13 -3 -29 -3 q-17 0 -52 4t-53 4q-32 0 -96 -11t-96 -11l-6 2q-1 3 -1 15q0 24 -19 24q-12 0 -127 -44t-199 -44q-285 0 -373 263q-45 137 -45 496l1 286v190q-6 137 -34 177q-3 5 -32 31q-24 22 -24 32z" />
<glyph unicode="V" horiz-adv-x="1137" d="M51 1414q0 19 26 19q35 0 106.5 -5.5t106.5 -5.5q34 0 106 5q58 4 93 4h13h19l9 -4l1 -9q0 -8 -27 -37t-27 -88q0 -35 19 -101l202 -691l160 487q16 41 31 82q18 50 18 86q0 19 -14 35.5t-32 16.5q-25 0 -42.5 -19.5t-17.5 -43.5q0 -42 51 -67q-22 -70 -83 -70 q-76 0 -120 70q-37 60 -37 141q0 109 70 173.5t180 64.5q117 0 193 -68q79 -71 79 -186q0 -69 -54 -236l-144 -426q-104 -317 -104 -407q0 -56 28 -83.5t28 -34.5q0 -17 -19 -17q-37 0 -111 5t-111 5q-34 0 -107 -5q-58 -4 -93 -4h-13h-16l-9 4l-1 11q0 9 29 35t29 85 q0 35 -19 103l-270 958q-26 94 -58 140q-3 4 -38 40q-30 31 -30 38z" />
<glyph unicode="W" horiz-adv-x="1700" d="M53 1415q0 17 25 17q36 0 107 -5t107 -5q37 0 114 5q64 4 103 4h14l9 -4l1 -9q0 -3 -37 -40.5t-37 -116.5q0 -128 77 -402t143 -382q117 280 117 522q0 250 -100 357l-34 28q-25 21 -25 31q0 17 26 17q35 0 106.5 -5t107.5 -5q37 0 115 5q62 4 101 4h14l9 -4l2 -10 q0 -6 -41.5 -41.5t-41.5 -98.5q0 -72 92 -393q82 -291 127 -407q10 38 117 356q99 297 99 308q0 46 -52 46q-58 0 -58 -59q0 -16 11.5 -40.5t11.5 -30.5q0 -26 -55 -26q-79 0 -125 56q-43 52 -43 132q0 104 76 172q73 65 179 65q116 0 193 -57q84 -64 84 -175 q0 -70 -52 -218q-79 -220 -158 -441q-101 -302 -101 -438q0 -47 29 -75.5t29 -34.5q0 -18 -19 -18q-37 0 -111 5t-112 5q-30 0 -99 -5q-55 -5 -88 -5h-11l-30 1l-9 4l-1 6q0 13 37 43t37 112q0 53 -39 222q-42 177 -65 206q-31 -21 -79 -227q-45 -192 -45 -256 q0 -45 24.5 -66.5t24.5 -26.5q0 -18 -18 -18q-37 0 -111.5 5t-111.5 5q-31 1 -97 -5q-56 -5 -90 -5h-12l-30 1l-9 4l-1 6q0 14 36.5 41.5t36.5 96.5q0 42 -13 90l-255 958q-31 116 -72 163q-15 13 -31 27q-23 20 -23 29z" />
<glyph unicode="X" horiz-adv-x="1487" d="M116 1027q0 177 80 294q92 136 262 136q155 0 239 -95q66 -74 108 -239q35 57 69 114q46 79 46 117q0 19 -23 35t-23 29q0 14 18 14q39 0 117.5 -5.5t118.5 -5.5q33 0 108 6q60 5 96 5h12l35 -1l7 -4q-1 -17 -46 -53q-61 -48 -61 -49q-66 -70 -165 -227 q-72 -118 -145 -236q95 52 162 52q57 0 99 -32q47 -35 47 -90q0 -26 -15 -48q-16 -26 -40 -27q-55 57 -117 57q-74 0 -120 -75q-38 -65 -38 -143q0 -95 43 -160q51 -76 140 -76q54 0 88 40.5t34 94.5q0 38 -28.5 70.5t-66.5 32.5q-10 0 -29 -5.5t-29 -5.5l-11 16 q-1 36 33 57q29 17 68 17q122 0 201 -120q70 -106 70 -233q0 -141 -90 -241q-94 -102 -234 -102q-195 0 -286 178q-71 137 -71 355q0 29 2 57q-211 -375 -211 -455q0 -16 15 -32.5t15 -26.5q0 -18 -20 -18q-36 0 -109.5 5t-110.5 5q-34 0 -104 -5q-58 -4 -93 -4h-13h-17 l-9 4l-1 10l5 14q21 10 62 30q64 34 121 143l294 554q-27 -4 -44 -4q-53 0 -94 32q-45 35 -45 87q0 45 27 84q30 -68 78 -68q100 0 100 105q0 64 -50.5 111.5t-115.5 47.5q-69 0 -111 -57q-37 -51 -37 -123q0 -93 34 -159q21 -42 66 -85q43 -43 43 -54q0 -49 -99 -49 q-116 0 -186 151q-55 121 -55 253z" />
<glyph unicode="Y" horiz-adv-x="1147" d="M39 1411q-2 22 26 22q35 0 106.5 -5.5t107.5 -5.5q30 0 94 5q51 4 82 4h11h19l9 -4l2 -11q0 -9 -18 -27.5t-18 -56.5q0 -83 94 -303l138 -308q218 353 218 422q0 20 -14 38.5t-34 18.5q-59 0 -59 -57q0 -21 24.5 -41t24.5 -27q0 -25 -34 -40q-27 -12 -55 -12 q-67 0 -112 68q-41 60 -41 130q0 101 79 169q76 65 179 65q115 0 196 -74q83 -77 83 -191q0 -98 -129 -346l-166 -294q-51 -94 -51 -304q0 -122 32 -168q3 -4 33 -30q24 -22 24 -31q0 -18 -19 -18q-37 0 -111 5t-111 5q-33 0 -103 -5q-57 -4 -92 -4h-13h-21l-9 4l-1 11 q0 11 25 34q30 28 34 34q31 49 31 172q0 141 -55 282l-258 665q-31 80 -54 113q-27 38 -89 85z" />
<glyph unicode="Z" horiz-adv-x="1207" d="M94 17q0 13 25 32l36 26q51 49 103 173l289 687q60 145 60 207q0 56 -34 98q-37 44 -93 44q-47 0 -87 -30q-44 -32 -44 -77q0 -22 20.5 -41t42.5 -19q35 0 59 25q18 -11 18 -37q0 -72 -57.5 -136.5t-129.5 -64.5q-78 0 -117 68q-31 55 -31 138q0 35 8 105t8 105 q0 33 -17 77t-17 41q0 20 18 20q57 0 153 -11q115 -12 152 -14q79 -5 191 -5q48 0 101 1q190 3 263 3h29l100 -1l9 -4l2 -12q0 -11 -11 -18q-68 -47 -98 -86q-26 -34 -61 -117l-196 -436q-135 -313 -135 -428q0 -124 134 -124q105 0 173 52q76 58 76 159q0 25 -13 53 q-15 35 -36 35q-31 0 -43 -43q-20 -75 -23 -81q-23 -43 -80 -43q-33 0 -60.5 32.5t-27.5 65.5q0 29 13 54q32 -54 56 -54q37 0 37 52q0 17 -6.5 50.5t-6.5 49.5q0 72 39 124q43 57 113 57q87 0 136 -68q42 -60 42 -150q0 -68 -28.5 -200.5t-28.5 -200.5q0 -62 25.5 -93 t25.5 -35q0 -23 -16 -23q-90 0 -272 7t-273 7q-71 0 -227 -7q-131 -7 -208 -7h-18l-51 1l-9 4z" />
<glyph unicode="[" horiz-adv-x="650" d="M213 -349v1806h471v-97h-216v-1604h216v-105h-471z" />
<glyph unicode="\" horiz-adv-x="1264" d="M194 1463h213l753 -1504h-213z" />
<glyph unicode="]" horiz-adv-x="650" d="M55 -244h217l-1 1604h-216v97h471v-1806h-471v105z" />
<glyph unicode="^" horiz-adv-x="654" d="M43 1568l157 186q52 62 74 79q45 35 101 35q57 0 101 -34q20 -16 75 -80l158 -186h-179l-155 100l-153 -100h-179z" />
<glyph unicode="_" horiz-adv-x="1084" d="M-43 -252h1169v-137h-1169v137z" />
<glyph unicode="`" horiz-adv-x="504" d="M78 1782q0 38 27 62t66 24q66 0 176 -121q72 -89 145 -179h-179l-138 88q-97 71 -97 126z" />
<glyph unicode="a" d="M69 15q0 11 12 19q86 62 107 86q30 35 63 126l271 747q43 117 43 185q0 76 -49 76q-51 0 -51 -52q0 -33 44 -43q-14 -110 -98 -110q-58 0 -103 69q-40 61 -40 122q0 141 108 225q99 77 245 77q161 0 243 -104q57 -72 103 -251l206 -789q53 -203 120 -203q68 0 68 77 q0 20 -13 41.5t-15 29.5l13 6q54 -3 84 -57q24 -45 24 -104q0 -108 -89 -181q-84 -69 -195 -69q-118 0 -180 92q-52 85 -103 170q-79 92 -239 92q-77 0 -137 -50q-63 -53 -63 -131q0 -36 50 -60.5t50 -40.5q0 -11 -19 -11q-37 0 -111 5t-111 5q-33 0 -99 -5t-99 -5 q-32 0 -39 5zM603 527q0 -39 42 -49q16 -4 74 -4q70 0 90 29v12q0 6 -93 334q-35 -80 -70 -159q-43 -105 -43 -163z" />
<glyph unicode="b" horiz-adv-x="1254" d="M70 11q80 57 100 101q15 34 19 142q28 946 28 961q0 83 -25 123q-19 30 -94 84q0 10 16 10q34 0 103 -8.5t104 -8.5q82 0 243 21t241 21q123 0 203 -84t80 -208q0 -122 -75 -201q-47 -51 -180 -125l67 1h10q317 0 317 -392q0 -192 -100 -340q-114 -168 -298 -168 q-109 0 -186 69q-81 71 -81 179q0 71 44 123q46 56 116 56q79 0 79 -68q-44 -20 -54 -29q-23 -18 -23 -54q0 -16 15.5 -29t30.5 -13q101 0 101 184q0 136 -58 235q-69 119 -195 119q-80 0 -108 -49q-20 -35 -20 -122l-1 -303v-59q0 -49 1 -58q6 -58 38 -108v-9q-7 -2 -20 -2 q-28 0 -84 6.5t-84 6.5q-36 0 -116 -8q-66 -6 -106 -6h-11l-31 1zM500 950q0 -88 71 -88q98 0 158 79q55 73 55 174q0 78 -45.5 125.5t-123.5 47.5q-23 0 -42 -4q-53 -9 -66 -102q-3 -27 -3 -141q0 -16 -2 -47t-2 -44z" />
<glyph unicode="c" horiz-adv-x="1687" d="M128 748q0 327 232 543q227 211 558 211q287 0 504 -180q231 -191 231 -471q0 -180 -96 -298q-103 -127 -280 -127q-128 0 -221 76q-98 82 -98 208q0 88 52 140.5t140 52.5q43 0 80 -32t37 -74q0 -27 -9 -46l-12 1h-5q-42 0 -42 -61q0 -15 17 -28.5t32 -13.5q97 0 97 170 q0 192 -138 339q-141 150 -331 150q-198 0 -304 -161q-92 -138 -92 -345q0 -237 100 -432q124 -242 339 -242q71 0 121 30q60 36 60 102q0 10 -5.5 29t-5.5 29q0 16 18 16q32 0 95 -18.5t97 -18.5q46 0 130 31t118 32l7 -15q-52 -91 -105 -182q-59 -92 -152 -141 q-159 -83 -411 -83q-342 0 -554 236q-204 228 -204 573z" />
<glyph unicode="d" horiz-adv-x="1607" d="M125 223q0 116 61 198q68 90 180 90q115 0 191 -86q58 -79 115 -159q73 -85 179 -85q172 0 273 183q84 152 84 339q0 240 -87 398q-108 200 -329 200q-150 0 -257 -89q-115 -94 -115 -240q0 -38 22 -66q24 -31 61 -31q46 0 75 31t29 78q0 70 -72 86q23 57 95 57 q79 0 132 -80q48 -71 48 -153q0 -140 -92.5 -227t-233.5 -87q-145 0 -237 93.5t-92 237.5q0 67 25.5 198t25.5 198q0 55 -27.5 98t-27.5 44q0 20 50 20q25 0 75 -4.5t75 -4.5q80 0 238.5 16.5t238.5 16.5q330 0 545 -229q210 -224 210 -556q0 -302 -185 -528 q-197 -241 -493 -241q-241 0 -347 129q-31 55 -62 109q-44 80 -78 80q-54 0 -54 -53q0 -44 45 -44q17 0 55 26q6 -35 6 -54q0 -69 -42.5 -111.5t-111.5 -42.5q-82 0 -139 84q-52 76 -52 161z" />
<glyph unicode="e" horiz-adv-x="1169" d="M121 15q0 11 25 34q31 28 35 34q30 47 36 290q1 13 1 317q0 271 -7 518q-3 102 -33 145q-3 4 -33 30q-24 21 -24 32q0 16 43 16q30 0 92 -5t93 -5q83 0 246 18.5t244 18.5q82 0 132 -38q56 -43 56 -122q0 -107 -86 -179q-82 -68 -191 -68q-35 0 -74 11q-53 14 -54 38 q78 46 78 109q0 102 -116 102q-41 0 -56 -13q-17 -110 -17 -312v-38q95 -107 221 -107q156 0 248 134q17 -67 17 -127q0 -111 -64 -190q-69 -84 -178 -84q-96 0 -170 64q-36 36 -73 72q-6 -9 -6 -103q0 -462 174 -462q46 0 82 31.5t36 76.5q0 29 -20 56t-47 27 q-24 0 -67 -21q51 169 242 169q119 0 182 -74q60 -69 60 -189q0 -135 -115 -201q-92 -54 -238 -54q-72 0 -214.5 21.5t-214.5 21.5q-31 0 -101 -6q-54 -4 -88 -4h-13l-33 1l-8 4z" />
<glyph unicode="f" horiz-adv-x="1007" d="M104 13q0 14 24 35q30 27 33 32q31 48 37 294q1 17 1 320q0 269 -7 514q-3 96 -29 140q-4 6 -34 34q-25 23 -25 33q0 17 37 17q47 0 140.5 -6.5t141.5 -6.5q148 0 260 18q132 20 149 20q75 0 125 -40q54 -44 54 -118q0 -107 -86 -179q-82 -69 -192 -69q-35 0 -75 11 q-54 15 -55 38q80 47 80 109q0 102 -117 102q-41 0 -55 -13q-19 -114 -19 -213q0 -240 234 -240q146 0 236 130q17 -66 17 -128q0 -109 -65 -189q-70 -84 -177 -84q-95 0 -170 65q-37 35 -73 71q-5 -7 -5 -123q0 -446 35 -503q4 -6 34 -34q26 -25 26 -33q0 -18 -19 -18 q-36 0 -110.5 5t-111.5 5q-34 0 -105 -5q-59 -4 -95 -4h-13h-16l-8 4z" />
<glyph unicode="g" horiz-adv-x="1679" d="M128 694q0 317 189 554q202 255 513 255q110 0 219 -47q68 -30 154 -88q70 -47 83 -47q23 0 41.5 19t18.5 42q0 33 -39 66q34 24 85 24q55 0 99 -27q51 -31 51 -83q0 -22 -10 -64t-10 -64q0 -29 13 -79q-114 -95 -219 -95q-75 0 -227 105t-222 105q-179 0 -284 -150 q-94 -132 -94 -316q0 -228 107 -411q127 -217 339 -217q165 0 286 133q117 130 117 296q0 137 -90 137q-53 0 -53 -54q0 -31 32 -44q28 -11 59 -4q-9 -178 -171 -178q-80 0 -141 75q-58 71 -58 153q0 141 94.5 236.5t236.5 95.5q174 0 290 -118.5t116 -292.5 q0 -278 -244 -480q-231 -191 -516 -191q-311 0 -538 223t-227 531z" />
<glyph unicode="h" horiz-adv-x="1341" d="M106 13q0 14 24 35q29 27 33 32q31 49 37 294q1 9 1 320q0 260 -7 514q-3 98 -31 142q-3 6 -33 33q-24 22 -24 32q0 18 25 18q35 0 106.5 -5.5t107.5 -5.5q31 0 100 5q56 5 89 5h11l30 -1l9 -4l2 -11q0 -12 -25 -34q-31 -26 -35 -32q-30 -46 -30 -146q0 -288 220 -288 q221 0 221 275q0 111 -32 159q-3 5 -33 31q-25 22 -25 32q0 18 25 18q35 0 106.5 -5.5t107.5 -5.5q34 0 101 5t100 5q32 0 40 -5l2 -11q0 -12 -25 -34q-30 -27 -34 -32q-31 -48 -37 -296q0 11 0 -322q0 -266 6 -510q3 -98 33 -143q3 -5 33 -31q24 -21 24 -31q0 -18 -19 -18 q-37 0 -112 5t-112 5q-31 0 -99 -5q-55 -5 -88 -5h-11l-31 1l-9 4l-1 10q0 12 26 32q32 25 35 29q26 34 30 135q0 -2 0 147q0 183 -27 251q-48 118 -202 118q-143 0 -190 -129q-27 -74 -27 -254q0 -227 38 -271q2 -3 32 -26q24 -18 24 -28q0 -17 -19 -17q-37 0 -111 5 t-111 5q-34 0 -105 -5q-59 -4 -95 -4h-13h-16l-9 4z" />
<glyph unicode="i" horiz-adv-x="584" d="M100 14q0 12 26 37q31 29 35 36q34 61 34 600q0 269 -7 521q-2 94 -28 138q-4 6 -34 35q-26 24 -26 33q0 19 25 19q36 0 107.5 -5.5t106.5 -5.5q31 0 100 5q56 5 90 5h11l30 -1l9 -4l2 -11q0 -12 -25 -33q-30 -27 -33 -32q-33 -48 -39 -292q0 8 0 -320q0 -273 7 -518 q2 -92 29 -136q4 -6 34 -35q27 -25 27 -33q0 -18 -20 -18q-36 0 -110 5t-112 5q-37 0 -113.5 -4.5t-115.5 -4.5l-8 4z" />
<glyph unicode="j" horiz-adv-x="1020" d="M124 364q0 93 50 167q56 83 146 83q80 0 139 -56t59 -136q0 -45 -30 -108q-16 35 -56 35q-84 0 -84 -108q0 -41 32 -73.5t73 -32.5q42 0 69 15q85 47 89 263q4 223 4 457q0 244 -4 414q-3 91 -43 152q-38 58 -39 55l1 9l20 4q157 -10 186 -10q39 0 122 6q69 5 109 5h13 h19l10 -5q0 -2 -37 -70q-39 -71 -42 -162q-5 -126 -5 -302v-104q5 -399 5 -405q0 -225 -88 -358q-105 -158 -322 -158q-178 0 -289 124q-107 119 -107 299z" />
<glyph unicode="k" horiz-adv-x="1377" d="M79 6v6l2 7q86 53 113 122q20 51 23 167q5 269 5 499q0 259 -6.5 428t-117.5 237l-2 7l8 14q138 -22 225 -22q49 0 141.5 15t118.5 15q12 0 11 -16l-4 -7q-77 -79 -100 -150q-19 -56 -19 -165v-11l2 -127q224 480 559 480q147 0 233 -98q81 -94 81 -243q0 -144 -77 -256 q-87 -125 -226 -125q-81 0 -143 55t-62 135q0 95 53 126q57 -66 97 -66q49 0 81.5 29t32.5 78q0 51 -44 84q-41 30 -94 30q-106 0 -195 -134q-81 -122 -81 -234q0 -47 52 -130q42 -61 84 -121l305 -449q38 -56 98 -97q23 -16 119 -68l6 -15l-14 -8q-267 15 -267 17h3 q-139 0 -269 -17l-10 8l4 15q53 24 53 59q0 40 -180 315q-98 147 -197 294l-2 -279q0 -26 -1 -71q-1 -41 -1 -59q0 -80 20 -128q25 -56 101 -131l4 -7q2 -15 -11 -15q-41 0 -123.5 11t-124.5 11q-111 0 -256 -23z" />
<glyph unicode="l" horiz-adv-x="1164" d="M100 14q0 12 25 36q31 29 35 35q35 58 35 606q0 275 -7 517q-2 97 -30 140q-3 6 -33 33q-25 24 -25 33q0 19 25 19q36 0 107.5 -5.5t106.5 -5.5q36 0 113 5q61 4 98 4h14h21l9 -4l2 -11q0 -11 -26 -35q-30 -29 -34 -36q-37 -61 -37 -610q0 -120 3 -244q5 -164 21 -217 q35 -122 152 -122q120 0 197 107q70 97 70 222q0 132 -66 132q-58 0 -58 -78q0 -20 8.5 -58.5t8.5 -57.5q0 -50 -33.5 -81.5t-83.5 -31.5q-47 0 -88.5 42.5t-41.5 89.5q0 54 33 55q1 -1 18 -35q13 -28 45 -28q35 0 35 40q0 21 -41 126t-41 169q0 98 67 173.5t163 75.5 q127 0 195 -96q59 -85 59 -217q0 -77 -21.5 -230.5t-21.5 -230.5q0 -116 33 -162q3 -5 33 -31q25 -22 25 -33q0 -17 -16 -17q-72 0 -217.5 6t-219.5 6h-108q-66 0 -215 -5q-119 -5 -192 -5h-23l-68 1l-8 4z" />
<glyph unicode="m" horiz-adv-x="1779" d="M95 1243q0 112 97 189q91 72 207 72q164 0 255 -94q67 -69 130 -244l161 -439l126 312q90 232 90 300q0 32 -23.5 52.5t-23.5 26.5l2 11l22 4q31 0 94 -6t94 -6q45 0 140 6q80 6 126 6h13h23l9 -4l2 -11q0 -11 -29 -28q-37 -21 -39 -24q-36 -34 -36 -115q0 -24 4 -55 q49 -468 92 -824q25 -205 67 -278q4 -6 36 -42q29 -32 29 -38q0 -16 -35 -16q-24 0 -72 5t-73 5q-42 0 -135 -5q-70 -3 -115 -3h-21h-29l-8 4l-1 6q0 20 23 39q33 26 44 45q24 39 24 108q0 10 -4 35l-83 595l-343 -856l-349 858q-24 -162 -49 -323q-29 -199 -29 -322 q0 -85 35 -122q17 -12 33 -24q23 -18 23 -30q0 -15 -42 -15q-22 0 -66.5 4.5t-67.5 4.5q-36 0 -110 -5q-62 -4 -99 -4h-14h-18l-9 4l-1 12q0 8 22 26q27 22 29 25q32 39 56 172q42 225 119 813q7 57 7 97q0 83 -42 83q-50 0 -50 -51q0 -31 57 -58l4 -18q0 -40 -37 -64 q-31 -21 -75 -21q-76 0 -125 77q-42 67 -42 148z" />
<glyph unicode="n" horiz-adv-x="1313" d="M116 14v-1q4 0 42 58q42 65 46 166q7 155 7 457q0 271 -8 514q-3 98 -28 140q-4 6 -34 34q-25 24 -25 33q0 18 19 18q42 0 126.5 -5.5t126.5 -5.5q33 0 106 5q58 5 94 5h11l33 -1l9 -4l1 -11q0 -9 -28 -32.5t-28 -72.5q0 -70 171 -388q113 -202 225 -405q0 261 14 457 q2 29 18 96q16 62 16 97q0 58 -53 58q-43 0 -43 -49q0 -48 56 -50l6 -11q1 -39 -40 -66q-36 -25 -77 -25q-75 0 -126 74q-45 66 -45 144q0 109 83 186q80 75 190 75q120 0 190 -74t70 -195q0 -25 -6 -71q-7 -49 -8 -71q-26 -896 -26 -926q0 -74 33 -108q3 -2 34 -20 q24 -15 24 -25q0 -16 -31 -16q-35 0 -107 5.5t-108 5.5q-35 0 -105 -5t-105 -5t-42 5l-2 10q0 10 27 29t27 59q0 104 -414 824q-5 -160 -5 -331v-268q6 -202 38 -248q3 -4 33 -31q24 -22 24 -31q0 -17 -38 -17q-21 0 -61 4t-61 4q-34 0 -106 -4q-59 -4 -96 -4h-15h-20l-8 4z " />
<glyph unicode="o" horiz-adv-x="1723" d="M121 771q0 328 215 532q211 202 544 202q334 0 573 -228q242 -232 242 -562q0 -324 -231 -550.5t-557 -226.5q-352 0 -573 243q-213 235 -213 590zM462 804q0 -241 114 -426q134 -218 362 -218q178 0 298 148q111 138 111 320q0 28 -3 50q-108 -312 -365 -312 q-131 0 -216 102q-80 96 -80 229q0 121 78 214q83 100 202 100q63 0 108 -36q49 -38 49 -99q0 -118 -64 -118h-6l-9 1q-42 65 -73 65q-86 0 -86 -89q0 -52 50 -84q43 -28 98 -28q109 0 180 82q67 78 67 189q0 179 -115.5 288t-296.5 109q-198 0 -306 -149q-97 -133 -97 -338 z" />
<glyph unicode="p" horiz-adv-x="1250" d="M110 14q0 13 24 35q30 27 33 33q38 60 38 603q0 270 -7 520q-3 102 -32 146q-3 5 -32 32q-24 22 -24 32q0 17 37 17q32 0 98.5 -5t99.5 -5q85 0 253.5 17.5t251.5 17.5q172 0 272 -115q94 -109 94 -284q0 -174 -93 -307q-104 -149 -271 -149q-122 0 -206 64 q-91 71 -91 188q0 79 54 144q57 69 135 69q66 0 80 -36q-75 -14 -75 -58q0 -43 54 -43q110 0 110 145q0 112 -63.5 179.5t-175.5 67.5q-79 0 -122 -38q-48 -43 -57 -210v-236v-195q0 -298 0 -292q5 -224 37 -271q3 -5 33 -31q25 -23 25 -32q0 -18 -19 -18q-37 0 -111 5 t-111 5q-34 0 -107 -5q-58 -4 -93 -4h-13h-16l-9 4z" />
<glyph unicode="q" horiz-adv-x="1674" d="M120 715q0 356 220 570.5t580 214.5q287 0 499 -184q221 -192 221 -475q0 -154 -62 -282q-77 -161 -213 -161q-44 0 -70 37q-23 33 -23 78q0 48 20.5 143t20.5 143q0 201 -112 347q-122 160 -317 160q-200 0 -312 -158q-100 -140 -100 -347q0 -138 36 -271 q42 -155 120 -241q137 -151 236 -151q47 0 88 20q46 -26 46 -79q0 -75 -99 -111q-71 -26 -163 -26q-190 0 -365 167q-160 152 -216 345q-35 119 -35 261zM654 454q0 116 68 190t184 74q165 0 250 -167q14 -27 103 -310q52 -168 138 -168q59 0 59 51q0 52 -61 52l-3 14 q0 54 45 87q41 31 96 31q71 0 118 -57q44 -54 44 -127q0 -123 -77.5 -202.5t-201.5 -79.5q-155 0 -255 137q-14 19 -134 254q-69 136 -151 136q-47 0 -65.5 -44t-52.5 -44q-48 0 -79 66q-25 53 -25 107z" />
<glyph unicode="r" horiz-adv-x="1245" d="M104 13q0 13 24 36q30 27 34 33q30 48 36 290q1 14 1 318q0 273 -7 518q-3 100 -31 143q-4 6 -33 32q-24 22 -24 32q0 17 37 17q33 0 99 -5t99 -5q85 0 253.5 17.5t252.5 17.5q172 0 271 -115q94 -109 94 -284q0 -174 -92 -307q-105 -149 -272 -149q-114 0 -201 62 q-97 69 -97 179q0 85 51 152q56 72 140 72q65 0 79 -36q-75 -14 -75 -58q0 -43 54 -43q110 0 110 145q0 112 -64 179.5t-175 67.5q-79 0 -121 -38q-48 -43 -57 -210q-1 -7 -1 -236v-195q0 -299 0 -292q6 -224 37 -271q4 -5 34 -31q24 -23 24 -32q0 -18 -19 -18 q-36 0 -110.5 5t-111.5 5q-34 0 -105 -5q-59 -4 -95 -4h-13h-16l-8 4zM513 511q0 116 98 116q66 0 171 -108q87 -100 175 -200q95 -108 136 -108q30 0 30 32q0 25 -20 56q162 -14 162 -143q0 -96 -81 -158q-75 -58 -173 -58q-176 0 -306 156q-67 81 -125 196 q-67 135 -67 219z" />
<glyph unicode="s" horiz-adv-x="1232" d="M123 341q0 129 81.5 220.5t209.5 91.5q120 0 207 -60q98 -68 98 -183q0 -134 -116 -155l1 14q0 67 -62 67q-84 0 -84 -81q0 -51 53 -82q45 -26 100 -26q108 0 185 97q72 90 72 200q0 161 -171 248q-159 69 -317 138q-171 100 -171 293q0 176 150 284q135 97 319 97 q148 0 261 -68q133 -81 133 -220q0 -103 -54 -169q-58 -72 -159 -72q-72 0 -130 46q-63 49 -63 120q0 26 7 61q41 -21 57 -21q25 0 45 18t20 42q0 34 -31 57.5t-66 23.5q-74 0 -127.5 -48.5t-53.5 -122.5q0 -17 5 -36q30 -115 212 -193q270 -115 311 -145q160 -115 160 -335 q0 -237 -183 -377q-167 -126 -413 -126q-198 0 -334 100q-152 111 -152 302z" />
<glyph unicode="t" horiz-adv-x="1443" d="M74 1457q355 -31 777 -31q329 0 597 31q-58 -50 -58 -215q0 -35 9 -103t9 -103q0 -93 -47 -155q-52 -67 -143 -67q-82 0 -140.5 60.5t-58.5 142.5q0 101 88 189q9 -58 61 -58q61 0 61 62q0 66 -88 66q-53 0 -113 -46q-123 -92 -123 -355q0 -485 6 -655q4 -101 34 -143 q3 -4 32 -29q24 -21 24 -31q0 -18 -19 -18q-37 0 -111 5t-111 5q-38 0 -115 -4q-73 -5 -114 -5l-9 4l-1 11q0 11 25 34q30 28 34 34q37 58 37 638q0 235 -25 339q-51 216 -213 216q-87 0 -87 -70q0 -58 56 -58q57 0 67 58q88 -90 88 -177q0 -84 -52 -147q-56 -68 -138 -68 q-96 0 -149 64q-50 59 -50 156q0 36 8.5 106.5t8.5 105.5q0 161 -57 211z" />
<glyph unicode="u" horiz-adv-x="1305" d="M110 1415q0 18 25 18q35 0 106.5 -5.5t107.5 -5.5q34 0 106 5q58 4 93 4h13h18l9 -4l2 -11q0 -12 -25 -34q-30 -27 -34 -32q-39 -60 -39 -617q0 -18 -1 -65t-1 -73q0 -190 40 -288q57 -143 206 -143q239 0 239 382q0 66 1 196.5t1 195.5q0 165 2 165v-2q-8 123 -53 123 q-55 0 -55 -48q0 -45 36.5 -52t36.5 -25q0 -43 -36 -70q-33 -23 -78 -23q-88 0 -145 88q-48 77 -48 169q0 106 76 174q73 67 181 67q209 0 283 -193q46 -119 46 -368q0 -106 -9 -317.5t-9 -316.5q0 -188 33 -233q3 -4 34 -29q25 -21 25 -31l-2 -12q-13 -3 -29 -3 q-17 0 -52 4t-53 4q-32 0 -96 -11t-96 -11l-6 2q-1 3 -1 15q0 24 -19 24q-12 0 -127 -44t-199 -44q-285 0 -373 263q-45 137 -45 496l1 286v190q-6 137 -34 177q-3 5 -32 31q-24 22 -24 32z" />
<glyph unicode="v" horiz-adv-x="1137" d="M51 1414q0 19 26 19q35 0 106.5 -5.5t106.5 -5.5q34 0 106 5q58 4 93 4h13h19l9 -4l1 -9q0 -8 -27 -37t-27 -88q0 -35 19 -101l202 -691l160 487q16 41 31 82q18 50 18 86q0 19 -14 35.5t-32 16.5q-25 0 -42.5 -19.5t-17.5 -43.5q0 -42 51 -67q-22 -70 -83 -70 q-76 0 -120 70q-37 60 -37 141q0 109 70 173.5t180 64.5q117 0 193 -68q79 -71 79 -186q0 -69 -54 -236l-144 -426q-104 -317 -104 -407q0 -56 28 -83.5t28 -34.5q0 -17 -19 -17q-37 0 -111 5t-111 5q-34 0 -107 -5q-58 -4 -93 -4h-13h-16l-9 4l-1 11q0 9 29 35t29 85 q0 35 -19 103l-270 958q-26 94 -58 140q-3 4 -38 40q-30 31 -30 38z" />
<glyph unicode="w" horiz-adv-x="1700" d="M53 1415q0 17 25 17q36 0 107 -5t107 -5q37 0 114 5q64 4 103 4h14l9 -4l1 -9q0 -3 -37 -40.5t-37 -116.5q0 -128 77 -402t143 -382q117 280 117 522q0 250 -100 357l-34 28q-25 21 -25 31q0 17 26 17q35 0 106.5 -5t107.5 -5q37 0 115 5q62 4 101 4h14l9 -4l2 -10 q0 -6 -41.5 -41.5t-41.5 -98.5q0 -72 92 -393q82 -291 127 -407q10 38 117 356q99 297 99 308q0 46 -52 46q-58 0 -58 -59q0 -16 11.5 -40.5t11.5 -30.5q0 -26 -55 -26q-79 0 -125 56q-43 52 -43 132q0 104 76 172q73 65 179 65q116 0 193 -57q84 -64 84 -175 q0 -70 -52 -218q-79 -220 -158 -441q-101 -302 -101 -438q0 -47 29 -75.5t29 -34.5q0 -18 -19 -18q-37 0 -111 5t-112 5q-30 0 -99 -5q-55 -5 -88 -5h-11l-30 1l-9 4l-1 6q0 13 37 43t37 112q0 53 -39 222q-42 177 -65 206q-31 -21 -79 -227q-45 -192 -45 -256 q0 -45 24.5 -66.5t24.5 -26.5q0 -18 -18 -18q-37 0 -111.5 5t-111.5 5q-31 1 -97 -5q-56 -5 -90 -5h-12l-30 1l-9 4l-1 6q0 14 36.5 41.5t36.5 96.5q0 42 -13 90l-255 958q-31 116 -72 163q-15 13 -31 27q-23 20 -23 29z" />
<glyph unicode="x" horiz-adv-x="1487" d="M116 1027q0 177 80 294q92 136 262 136q155 0 239 -95q66 -74 108 -239q35 57 69 114q46 79 46 117q0 19 -23 35t-23 29q0 14 18 14q39 0 117.5 -5.5t118.5 -5.5q33 0 108 6q60 5 96 5h12l35 -1l7 -4q-1 -17 -46 -53q-61 -48 -61 -49q-66 -70 -165 -227 q-72 -118 -145 -236q95 52 162 52q57 0 99 -32q47 -35 47 -90q0 -26 -15 -48q-16 -26 -40 -27q-55 57 -117 57q-74 0 -120 -75q-38 -65 -38 -143q0 -95 43 -160q51 -76 140 -76q54 0 88 40.5t34 94.5q0 38 -28.5 70.5t-66.5 32.5q-10 0 -29 -5.5t-29 -5.5l-11 16 q-1 36 33 57q29 17 68 17q122 0 201 -120q70 -106 70 -233q0 -141 -90 -241q-94 -102 -234 -102q-195 0 -286 178q-71 137 -71 355q0 29 2 57q-211 -375 -211 -455q0 -16 15 -32.5t15 -26.5q0 -18 -20 -18q-36 0 -109.5 5t-110.5 5q-34 0 -104 -5q-58 -4 -93 -4h-13h-17 l-9 4l-1 10l5 14q21 10 62 30q64 34 121 143l294 554q-27 -4 -44 -4q-53 0 -94 32q-45 35 -45 87q0 45 27 84q30 -68 78 -68q100 0 100 105q0 64 -50.5 111.5t-115.5 47.5q-69 0 -111 -57q-37 -51 -37 -123q0 -93 34 -159q21 -42 66 -85q43 -43 43 -54q0 -49 -99 -49 q-116 0 -186 151q-55 121 -55 253z" />
<glyph unicode="y" horiz-adv-x="1147" d="M39 1411q-2 22 26 22q35 0 106.5 -5.5t107.5 -5.5q30 0 94 5q51 4 82 4h11h19l9 -4l2 -11q0 -9 -18 -27.5t-18 -56.5q0 -83 94 -303l138 -308q218 353 218 422q0 20 -14 38.5t-34 18.5q-59 0 -59 -57q0 -21 24.5 -41t24.5 -27q0 -25 -34 -40q-27 -12 -55 -12 q-67 0 -112 68q-41 60 -41 130q0 101 79 169q76 65 179 65q115 0 196 -74q83 -77 83 -191q0 -98 -129 -346l-166 -294q-51 -94 -51 -304q0 -122 32 -168q3 -4 33 -30q24 -22 24 -31q0 -18 -19 -18q-37 0 -111 5t-111 5q-33 0 -103 -5q-57 -4 -92 -4h-13h-21l-9 4l-1 11 q0 11 25 34q30 28 34 34q31 49 31 172q0 141 -55 282l-258 665q-31 80 -54 113q-27 38 -89 85z" />
<glyph unicode="z" horiz-adv-x="1207" d="M94 17q0 13 25 32l36 26q51 49 103 173l289 687q60 145 60 207q0 56 -34 98q-37 44 -93 44q-47 0 -87 -30q-44 -32 -44 -77q0 -22 20.5 -41t42.5 -19q35 0 59 25q18 -11 18 -37q0 -72 -57.5 -136.5t-129.5 -64.5q-78 0 -117 68q-31 55 -31 138q0 35 8 105t8 105 q0 33 -17 77t-17 41q0 20 18 20q57 0 153 -11q115 -12 152 -14q79 -5 191 -5q48 0 101 1q190 3 263 3h29l100 -1l9 -4l2 -12q0 -11 -11 -18q-68 -47 -98 -86q-26 -34 -61 -117l-196 -436q-135 -313 -135 -428q0 -124 134 -124q105 0 173 52q76 58 76 159q0 25 -13 53 q-15 35 -36 35q-31 0 -43 -43q-20 -75 -23 -81q-23 -43 -80 -43q-33 0 -60.5 32.5t-27.5 65.5q0 29 13 54q32 -54 56 -54q37 0 37 52q0 17 -6.5 50.5t-6.5 49.5q0 72 39 124q43 57 113 57q87 0 136 -68q42 -60 42 -150q0 -68 -28.5 -200.5t-28.5 -200.5q0 -62 25.5 -93 t25.5 -35q0 -23 -16 -23q-90 0 -272 7t-273 7q-71 0 -227 -7q-131 -7 -208 -7h-18l-51 1l-9 4z" />
<glyph unicode="{" horiz-adv-x="1022" d="M98 561v115q205 33 272 100q77 76 77 277v106q0 151 24 220q35 101 144 165q146 86 377 86v-101q-168 -18 -257 -107q-73 -74 -73 -230q0 -31 3.5 -90t3.5 -85q0 -208 -127 -297q-84 -59 -320 -102q216 -34 306.5 -90t116.5 -174q20 -86 20 -319q0 -152 86.5 -237 t242.5 -93v-96q-530 14 -547 369q2 -31 2 244q0 182 -89 253q-65 52 -262 86z" />
<glyph unicode="|" horiz-adv-x="546" d="M247 -160v1807h156v-1807h-156z" />
<glyph unicode="}" horiz-adv-x="1022" d="M106 -295q113 6 207 72q123 86 123 246q0 23 -2 74.5t-2 80.5q0 237 109 329q86 72 336 111q-226 41 -315.5 96.5t-113.5 173.5q-16 77 -16 324q0 282 -325 317v101q527 0 545 -398v-156q0 -217 70 -293q65 -73 279 -107v-115q-226 -39 -294 -119q-55 -64 -55 -237 q0 -23 1 -78.5t1 -89.5q0 -428 -548 -428v96z" />
<glyph unicode="~" horiz-adv-x="688" d="M100 1594q0 -74 42 -74q31 0 35 23q-1 -6 -1 46q0 48 48 48q58 0 172 -54t181 -54q134 0 134 174q0 41 -17 82q-21 51 -57 51q-33 0 -33 -29l16.5 -35t16.5 -61q0 -29 -23.5 -47.5t-53.5 -18.5q-36 0 -129.5 64.5t-154.5 64.5q-75 0 -125.5 -52.5t-50.5 -127.5z" />
<glyph unicode="&#xa2;" horiz-adv-x="1162" d="M129 806q0 204 131 348q129 139 334 170v14q0 99 -7 112t-84 58l-3 13q5 3 54 0q61 -4 63 -4q25 0 83 5q54 3 83 3l25 -1l5 -3l-2 -13q-36 -20 -72 -39q-21 -19 -21 -72v-68q164 -3 272 -94q116 -98 116 -258q0 -134 -87 -208q-81 -69 -218 -69q-93 0 -150 42 q-65 48 -65 138q0 58 30 101q35 48 91 48q37 0 67 -21q34 -24 34 -61q0 -14 -7 -23h-13q-32 1 -32 -32q0 -41 44 -41q54 0 88 40q33 37 33 92q0 91 -94 154q-84 57 -180 57q-137 0 -211 -112q-63 -96 -63 -239q0 -167 69 -301q86 -166 238 -166q123 0 121 150 q93 -32 139 -32q47 0 169 41l5 -17l-72 -116q-35 -47 -109 -87q-114 -62 -215 -67v-17q0 -117 5 -131q12 -41 88 -85l2 -13q-112 4 -117 4q-25 0 -82 -4q-53 -5 -82 -4l-26 1l-6 3l3 13q55 32 74 60.5t18 86.5l-1 86q-213 18 -343 183q-122 156 -122 375z" />
<glyph unicode="&#xa3;" horiz-adv-x="1096" d="M121 126q0 89 67 143q62 49 155 49q36 0 111 -21q-27 199 -84 325h-206v146h177q-40 97 -40 202q0 204 136 345t339 141q139 0 219.5 -82.5t80.5 -221.5q0 -129 -70 -228q-78 -111 -202 -111q-73 0 -126 50.5t-53 122.5q0 68 44 109q53 -59 91 -59q99 0 99 94 q0 46 -42 75q-38 27 -85 27q-78 0 -128 -66q-46 -59 -46 -140q0 -56 59 -258h243v-146h-221q0 -204 -45 -372q144 -42 227 -42q80 0 121 32q38 31 63 109h41q0 -158 -52 -261q-69 -134 -212 -134q-78 0 -146 44q-40 26 -116 102q-61 -92 -86 -112q-46 -36 -142 -36 q-75 0 -123 49t-48 125zM182 114q0 -48 34 -77t84 -29q117 0 145 157q-54 60 -145 60q-48 0 -83 -31.5t-35 -79.5z" />
<glyph unicode="&#xa8;" horiz-adv-x="655" d="M93 1690q0 53 35 86.5t89 33.5q46 0 83.5 -35t37.5 -81q0 -52 -33.5 -90t-84.5 -38q-52 0 -89.5 36t-37.5 88zM459 1690q0 53 35 86.5t88 33.5q46 0 84 -35.5t38 -80.5q0 -52 -33 -90t-85 -38q-54 0 -90.5 35.5t-36.5 88.5z" />
<glyph unicode="&#xad;" horiz-adv-x="699" d="M98 451q11 76 11 126q0 54 -11 137q163 -10 295 -10q147 0 299 10q-11 -79 -11 -128q0 -55 11 -135q-163 9 -287 9q-144 0 -307 -9z" />
<glyph unicode="&#xb4;" horiz-adv-x="504" d="M64 1606l136 168q118 132 187 132q35 0 63.5 -23.5t28.5 -58.5q0 -60 -96 -130l-140 -88h-179z" />
<glyph unicode="&#xb7;" horiz-adv-x="871" d="M247 -422q0 64 35 108q39 49 101 49q52 0 93 -27q48 -31 48 -80q0 -82 -64 -82q-33 0 -30 45q23 -6 23 20q0 19 -16 19q-34 0 -34 -45q0 -77 86 -77q51 0 79 45q24 38 24 91q0 70 -50 116q-49 43 -120 43q-65 0 -126 -28q-13 2 -13 12q0 12 43 98.5t44 133.5h143 q-4 -64 -44 -130q26 6 49 6q108 0 173 -93q58 -82 58 -194q0 -108 -74.5 -176.5t-184.5 -68.5q-98 0 -169 58q-74 61 -74 157z" />
<glyph unicode="&#xc0;" d="M69 15q0 11 12 19q86 62 107 86q30 35 63 126l271 747q43 117 43 185q0 76 -49 76q-51 0 -51 -52q0 -33 44 -43q-14 -110 -98 -110q-58 0 -103 69q-40 61 -40 122q0 141 108 225q99 77 245 77q161 0 243 -104q57 -72 103 -251l206 -789q53 -203 120 -203q68 0 68 77 q0 20 -13 41.5t-15 29.5l13 6q54 -3 84 -57q24 -45 24 -104q0 -108 -89 -181q-84 -69 -195 -69q-118 0 -180 92q-52 85 -103 170q-79 92 -239 92q-77 0 -137 -50q-63 -53 -63 -131q0 -36 50 -60.5t50 -40.5q0 -11 -19 -11q-37 0 -111 5t-111 5q-33 0 -99 -5t-99 -5 q-32 0 -39 5zM341 1820q0 38 27 62.5t66 24.5q66 0 176 -122q73 -90 146 -179h-179l-138 88q-98 72 -98 126zM603 527q0 -39 42 -49q16 -4 74 -4q70 0 90 29v12q0 6 -93 334q-35 -80 -70 -159q-43 -105 -43 -163z" />
<glyph unicode="&#xc1;" d="M69 15q0 11 12 19q86 62 107 86q30 35 63 126l271 747q43 117 43 185q0 76 -49 76q-51 0 -51 -52q0 -33 44 -43q-14 -110 -98 -110q-58 0 -103 69q-40 61 -40 122q0 141 108 225q99 77 245 77q161 0 243 -104q57 -72 103 -251l206 -789q53 -203 120 -203q68 0 68 77 q0 20 -13 41.5t-15 29.5l13 6q54 -3 84 -57q24 -45 24 -104q0 -108 -89 -181q-84 -69 -195 -69q-118 0 -180 92q-52 85 -103 170q-79 92 -239 92q-77 0 -137 -50q-63 -53 -63 -131q0 -36 50 -60.5t50 -40.5q0 -11 -19 -11q-37 0 -111 5t-111 5q-33 0 -99 -5t-99 -5 q-32 0 -39 5zM545 1606q68 84 136 169q119 132 187 132q35 0 63.5 -23.5t28.5 -57.5q0 -61 -96 -132l-140 -88h-179zM603 527q0 -39 42 -49q16 -4 74 -4q70 0 90 29v12q0 6 -93 334q-35 -80 -70 -159q-43 -105 -43 -163z" />
<glyph unicode="&#xc2;" d="M69 15q0 11 12 19q86 62 107 86q30 35 63 126l271 747q43 117 43 185q0 76 -49 76q-51 0 -51 -52q0 -33 44 -43q-14 -110 -98 -110q-58 0 -103 69q-40 61 -40 122q0 141 108 225q99 77 245 77q161 0 243 -104q57 -72 103 -251l206 -789q53 -203 120 -203q68 0 68 77 q0 20 -13 41.5t-15 29.5l13 6q54 -3 84 -57q24 -45 24 -104q0 -108 -89 -181q-84 -69 -195 -69q-118 0 -180 92q-52 85 -103 170q-79 92 -239 92q-77 0 -137 -50q-63 -53 -63 -131q0 -36 50 -60.5t50 -40.5q0 -11 -19 -11q-37 0 -111 5t-111 5q-33 0 -99 -5t-99 -5 q-32 0 -39 5zM328 1606l157 187q50 61 74 79q44 34 101 34q58 0 101 -34q22 -16 74 -79l159 -187h-179l-155 101l-153 -101h-179zM603 527q0 -39 42 -49q16 -4 74 -4q70 0 90 29v12q0 6 -93 334q-35 -80 -70 -159q-43 -105 -43 -163z" />
<glyph unicode="&#xc3;" d="M69 15q0 11 12 19q86 62 107 86q30 35 63 126l271 747q43 117 43 185q0 76 -49 76q-51 0 -51 -52q0 -33 44 -43q-14 -110 -98 -110q-58 0 -103 69q-40 61 -40 122q0 141 108 225q99 77 245 77q161 0 243 -104q57 -72 103 -251l206 -789q53 -203 120 -203q68 0 68 77 q0 20 -13 41.5t-15 29.5l13 6q54 -3 84 -57q24 -45 24 -104q0 -108 -89 -181q-84 -69 -195 -69q-118 0 -180 92q-52 85 -103 170q-79 92 -239 92q-77 0 -137 -50q-63 -53 -63 -131q0 -36 50 -60.5t50 -40.5q0 -11 -19 -11q-37 0 -111 5t-111 5q-33 0 -99 -5t-99 -5 q-32 0 -39 5zM369 1672q0 -74 44 -74q32 0 36 22q-2 -9 -2 48q0 46 47 46q58 0 171.5 -54t180.5 -54q69 0 105 55q31 47 31 119q0 41 -17 81q-22 52 -57 52q-33 0 -33 -28l16 -36.5t16 -60.5q0 -29 -23.5 -47.5t-53.5 -18.5q-35 0 -129.5 65.5t-154.5 65.5q-76 0 -126.5 -53 t-50.5 -128zM603 527q0 -39 42 -49q16 -4 74 -4q70 0 90 29v12q0 6 -93 334q-35 -80 -70 -159q-43 -105 -43 -163z" />
<glyph unicode="&#xc4;" d="M69 15q0 11 12 19q86 62 107 86q30 35 63 126l271 747q43 117 43 185q0 76 -49 76q-51 0 -51 -52q0 -33 44 -43q-14 -110 -98 -110q-58 0 -103 69q-40 61 -40 122q0 141 108 225q99 77 245 77q161 0 243 -104q57 -72 103 -251l206 -789q53 -203 120 -203q68 0 68 77 q0 20 -13 41.5t-15 29.5l13 6q54 -3 84 -57q24 -45 24 -104q0 -108 -89 -181q-84 -69 -195 -69q-118 0 -180 92q-52 85 -103 170q-79 92 -239 92q-77 0 -137 -50q-63 -53 -63 -131q0 -36 50 -60.5t50 -40.5q0 -11 -19 -11q-37 0 -111 5t-111 5q-33 0 -99 -5t-99 -5 q-32 0 -39 5zM346 1728q0 54 36 87t90 33q46 0 82 -35t36 -81q0 -50 -32 -88q-35 -39 -85 -39q-52 0 -89.5 35.5t-37.5 87.5zM603 527q0 -39 42 -49q16 -4 74 -4q70 0 90 29v12q0 6 -93 334q-35 -80 -70 -159q-43 -105 -43 -163zM712 1728q0 54 35.5 87.5t90.5 33.5 q45 0 81.5 -35.5t36.5 -81.5q0 -50 -33.5 -88.5t-84.5 -38.5t-88.5 35.5t-37.5 87.5z" />
<glyph unicode="&#xc5;" d="M69 15q0 11 12 19q86 62 107 86q30 35 63 126l271 747q43 117 43 185q0 76 -49 76q-51 0 -51 -52q0 -33 44 -43q-14 -110 -98 -110q-58 0 -103 69q-40 61 -40 122q0 141 108 225q99 77 245 77q161 0 243 -104q57 -72 103 -251l206 -789q53 -203 120 -203q68 0 68 77 q0 20 -13 41.5t-15 29.5l13 6q54 -3 84 -57q24 -45 24 -104q0 -108 -89 -181q-84 -69 -195 -69q-118 0 -180 92q-52 85 -103 170q-79 92 -239 92q-77 0 -137 -50q-63 -53 -63 -131q0 -36 50 -60.5t50 -40.5q0 -11 -19 -11q-37 0 -111 5t-111 5q-33 0 -99 -5t-99 -5 q-32 0 -39 5zM451 1793q0 90 58.5 147t148.5 57q74 0 129.5 -59t55.5 -133q0 -80 -56 -139.5t-137 -59.5q-82 0 -140.5 53t-58.5 134zM539 1796q0 -42 33.5 -72t76.5 -30t74.5 33.5t31.5 76.5q0 39 -32 71.5t-71 32.5q-48 0 -80.5 -32t-32.5 -80zM603 527q0 -39 42 -49 q16 -4 74 -4q70 0 90 29v12q0 6 -93 334q-35 -80 -70 -159q-43 -105 -43 -163z" />
<glyph unicode="&#xc6;" horiz-adv-x="1838" d="M53 4q-1 22 35 42q28 14 55 28q67 48 134 172l402 747q79 149 79 221q0 40 -37 40q-64 0 -64 -59q0 -27 37 -36q-29 -109 -116 -109q-48 0 -82 53q-30 48 -30 98q0 151 132 250q121 91 278 91q167 0 229 -119q58 3 193 20q124 16 193 16q200 0 200 -161q0 -107 -86 -179 q-82 -68 -191 -68q-35 0 -75 11q-52 15 -53 38q77 46 77 109q0 102 -115 102q-42 0 -56 -13q-17 -110 -17 -311v-39q96 -107 221 -107q156 0 248 134q17 -67 17 -127q0 -111 -64 -190q-69 -84 -178 -84q-94 0 -168 64l-76 72q-5 -9 -5 -103q0 -461 174 -461q46 0 81.5 31 t35.5 76q0 29 -18 55q-21 28 -48 28q-24 0 -66 -21q48 168 241 168q117 0 182 -72q61 -69 61 -187q0 -137 -115 -204q-93 -54 -240 -54q-72 0 -214.5 21.5t-213.5 21.5q-31 0 -101 -6q-65 -5 -101 -4l-33 1l-9 4l-1 9q0 8 22 31q28 29 43 62q23 51 25 127q-75 59 -196 59 q-77 0 -151 -56q-80 -60 -80 -135q0 -29 42 -51.5t42 -35.5q0 -15 -21 -15q-36 0 -110 5t-111 5q-30 0 -99 -5q-65 -6 -100 -5l-30 1zM678 514q0 -39 95 -39q55 0 108 11v413q-61 -95 -121 -190q-82 -140 -82 -195z" />
<glyph unicode="&#xc7;" horiz-adv-x="1687" d="M128 748q0 327 232 543q227 211 558 211q287 0 504 -180q231 -191 231 -471q0 -180 -96 -298q-104 -127 -280 -127q-128 0 -221 76q-98 82 -98 208q0 78 48.5 135.5t125.5 57.5q52 0 91 -26q44 -30 44 -80q0 -28 -9 -46l-9 1q-50 0 -50 -58q0 -17 16 -31t33 -14 q97 0 97 155q0 200 -133 349q-139 155 -336 155q-198 0 -304 -161q-92 -138 -92 -345q0 -237 100 -432q124 -242 339 -242q71 0 121 30q60 36 60 102q0 10 -5.5 29t-5.5 29q0 16 18 16q32 0 93.5 -18.5t94.5 -18.5q47 0 134 31.5t118 31.5l7 -15q-52 -91 -105 -182 q-59 -92 -152 -141q-159 -84 -409 -84q-11 -39 -28 -68q22 6 37 6q114 0 181 -91q59 -81 59 -199q0 -108 -74 -175.5t-184 -67.5q-97 0 -167 57q-75 61 -75 156q0 158 147 158q47 0 86 -29q43 -32 43 -77q0 -81 -65 -81q-33 0 -28 45q21 3 21 13q0 21 -13 24q-36 -2 -36 -43 q0 -31 23 -54.5t54 -23.5q114 0 114 135q0 69 -49.5 115t-119.5 46q-65 0 -128 -28q-14 2 -14 12q0 9 36 85q40 84 44 98q-295 52 -464 277q-160 214 -160 520z" />
<glyph unicode="&#xc8;" horiz-adv-x="1169" d="M121 15q0 11 25 34q31 28 35 34q30 47 36 290q1 13 1 317q0 271 -7 518q-3 102 -33 145q-3 4 -33 30q-24 21 -24 32q0 16 43 16q30 0 92 -5t93 -5q83 0 246 18.5t244 18.5q82 0 132 -38q56 -43 56 -122q0 -107 -86 -179q-82 -68 -191 -68q-35 0 -74 11q-53 14 -54 38 q78 46 78 109q0 102 -116 102q-41 0 -56 -13q-17 -110 -17 -312v-38q95 -107 221 -107q156 0 248 134q17 -67 17 -127q0 -111 -64 -190q-69 -84 -178 -84q-96 0 -170 64q-36 36 -73 72q-6 -9 -6 -103q0 -462 174 -462q46 0 82 31.5t36 76.5q0 29 -20 56t-47 27 q-24 0 -67 -21q51 169 242 169q119 0 182 -74q60 -69 60 -189q0 -135 -115 -201q-92 -54 -238 -54q-72 0 -214.5 21.5t-214.5 21.5q-31 0 -101 -6q-65 -5 -101 -4l-33 1l-8 4zM282 1783q0 38 27 61.5t65 23.5q66 0 177 -121q73 -90 147 -179h-180q-69 44 -138 89 q-98 71 -98 126z" />
<glyph unicode="&#xc9;" horiz-adv-x="1169" d="M121 15q0 11 25 34q31 28 35 34q30 47 36 290q1 13 1 317q0 271 -7 518q-3 102 -33 145q-3 4 -33 30q-24 21 -24 32q0 16 43 16q30 0 92 -5t93 -5q83 0 246 18.5t244 18.5q82 0 132 -38q56 -43 56 -122q0 -107 -86 -179q-82 -68 -191 -68q-35 0 -74 11q-53 14 -54 38 q78 46 78 109q0 102 -116 102q-41 0 -56 -13q-17 -110 -17 -312v-38q95 -107 221 -107q156 0 248 134q17 -67 17 -127q0 -111 -64 -190q-69 -84 -178 -84q-96 0 -170 64q-36 36 -73 72q-6 -9 -6 -103q0 -462 174 -462q46 0 82 31.5t36 76.5q0 29 -20 56t-47 27 q-24 0 -67 -21q51 169 242 169q119 0 182 -74q60 -69 60 -189q0 -135 -115 -201q-92 -54 -238 -54q-72 0 -214.5 21.5t-214.5 21.5q-31 0 -101 -6q-65 -5 -101 -4l-33 1l-8 4zM436 1568q74 91 149 182q109 118 184 118q30 0 56 -25t26 -55q0 -59 -95 -130q-71 -45 -141 -90 h-179z" />
<glyph unicode="&#xca;" horiz-adv-x="1169" d="M121 15q0 11 25 34q31 28 35 34q30 47 36 290q1 13 1 317q0 271 -7 518q-3 102 -33 145q-3 4 -33 30q-24 21 -24 32q0 16 43 16q30 0 92 -5t93 -5q83 0 246 18.5t244 18.5q82 0 132 -38q56 -43 56 -122q0 -107 -86 -179q-82 -68 -191 -68q-35 0 -74 11q-53 14 -54 38 q78 46 78 109q0 102 -116 102q-41 0 -56 -13q-17 -110 -17 -312v-38q95 -107 221 -107q156 0 248 134q17 -67 17 -127q0 -111 -64 -190q-69 -84 -178 -84q-96 0 -170 64q-36 36 -73 72q-6 -9 -6 -103q0 -462 174 -462q46 0 82 31.5t36 76.5q0 29 -20 56t-47 27 q-24 0 -67 -21q51 169 242 169q119 0 182 -74q60 -69 60 -189q0 -135 -115 -201q-92 -54 -238 -54q-72 0 -214.5 21.5t-214.5 21.5q-31 0 -101 -6q-65 -5 -101 -4l-33 1l-8 4zM249 1568l158 186q54 62 75 79q44 35 101 35q56 0 100 -35q22 -17 75 -79l158 -186h-181 l-152 100l-155 -100h-179z" />
<glyph unicode="&#xcb;" horiz-adv-x="1169" d="M121 15q0 11 25 34q31 28 35 34q30 47 36 290q1 13 1 317q0 271 -7 518q-3 102 -33 145q-3 4 -33 30q-24 21 -24 32q0 16 43 16q30 0 92 -5t93 -5q83 0 246 18.5t244 18.5q82 0 132 -38q56 -43 56 -122q0 -107 -86 -179q-82 -68 -191 -68q-35 0 -74 11q-53 14 -54 38 q78 46 78 109q0 102 -116 102q-41 0 -56 -13q-17 -110 -17 -312v-38q95 -107 221 -107q156 0 248 134q17 -67 17 -127q0 -111 -64 -190q-69 -84 -178 -84q-96 0 -170 64q-36 36 -73 72q-6 -9 -6 -103q0 -462 174 -462q46 0 82 31.5t36 76.5q0 29 -20 56t-47 27 q-24 0 -67 -21q51 169 242 169q119 0 182 -74q60 -69 60 -189q0 -135 -115 -201q-92 -54 -238 -54q-72 0 -214.5 21.5t-214.5 21.5q-31 0 -101 -6q-65 -5 -101 -4l-33 1l-8 4zM269 1650q0 49 32 85t81 36q53 0 91 -30q40 -33 40 -85t-33.5 -90.5t-86.5 -38.5q-51 0 -87.5 36 t-36.5 87zM635 1651q0 48 32 84t81 36q53 0 90 -31q41 -32 41 -84q0 -53 -33.5 -91t-86.5 -38q-52 0 -88 35.5t-36 88.5z" />
<glyph unicode="&#xcc;" horiz-adv-x="584" d="M25 1743q0 38 27.5 62.5t65.5 24.5q66 0 176 -122q73 -90 145 -179h-179q-68 44 -137 88q-98 73 -98 126zM100 14q0 12 26 37q31 29 35 36q34 61 34 600q0 269 -7 521q-2 94 -28 138q-4 6 -34 35q-26 24 -26 33q0 19 25 19q36 0 107.5 -5.5t106.5 -5.5q31 0 100 5 q65 6 101 5l30 -1l9 -4l2 -11q0 -12 -25 -33q-30 -27 -33 -32q-33 -48 -39 -292q0 8 0 -320q0 -273 7 -518q2 -92 29 -136q4 -6 34 -35q27 -25 27 -33q0 -18 -20 -18q-36 0 -110 5t-112 5q-37 0 -113.5 -4.5t-115.5 -4.5l-8 4z" />
<glyph unicode="&#xcd;" horiz-adv-x="584" d="M100 14q0 12 26 37q31 29 35 36q34 61 34 600q0 269 -7 521q-2 94 -28 138q-4 6 -34 35q-26 24 -26 33q0 19 25 19q36 0 107.5 -5.5t106.5 -5.5q31 0 100 5q65 6 101 5l30 -1l9 -4l2 -11q0 -12 -25 -33q-30 -27 -33 -32q-33 -48 -39 -292q0 8 0 -320q0 -273 7 -518 q2 -92 29 -136q4 -6 34 -35q27 -25 27 -33q0 -18 -20 -18q-36 0 -110 5t-112 5q-37 0 -113.5 -4.5t-115.5 -4.5l-8 4zM264 1529q74 91 149 182q109 118 184 118q30 0 56.5 -25.5t26.5 -55.5q0 -58 -95 -129l-140 -90h-181z" />
<glyph unicode="&#xce;" horiz-adv-x="584" d="M21 1529l158 185q54 63 75 80q44 35 100 35q57 0 101 -35q21 -16 75 -80l158 -185h-179l-155 101l-154 -101h-179zM100 14q0 12 26 37q31 29 35 36q34 61 34 600q0 269 -7 521q-2 94 -28 138q-4 6 -34 35q-26 24 -26 33q0 19 25 19q36 0 107.5 -5.5t106.5 -5.5 q31 0 100 5q65 6 101 5l30 -1l9 -4l2 -11q0 -12 -25 -33q-30 -27 -33 -32q-33 -48 -39 -292q0 8 0 -320q0 -273 7 -518q2 -92 29 -136q4 -6 34 -35q27 -25 27 -33q0 -18 -20 -18q-36 0 -110 5t-112 5q-37 0 -113.5 -4.5t-115.5 -4.5l-8 4z" />
<glyph unicode="&#xcf;" horiz-adv-x="584" d="M31 1650q0 49 32.5 85t81.5 36q52 0 91.5 -32t39.5 -84t-34.5 -90t-86.5 -38q-51 0 -87.5 36t-36.5 87zM100 14q0 12 26 37q31 29 35 36q34 61 34 600q0 269 -7 521q-2 94 -28 138q-4 6 -34 35q-26 24 -26 33q0 19 25 19q36 0 107.5 -5.5t106.5 -5.5q31 0 100 5 q65 6 101 5l30 -1l9 -4l2 -11q0 -12 -25 -33q-30 -27 -33 -32q-33 -48 -39 -292q0 8 0 -320q0 -273 7 -518q2 -92 29 -136q4 -6 34 -35q27 -25 27 -33q0 -18 -20 -18q-36 0 -110 5t-112 5q-37 0 -113.5 -4.5t-115.5 -4.5l-8 4zM397 1651q0 48 32.5 84t80.5 36q53 0 92 -31.5 t39 -83.5q0 -53 -33.5 -91t-86.5 -38q-52 0 -88 36t-36 88z" />
<glyph unicode="&#xd1;" horiz-adv-x="1313" d="M116 14q0 -8 41.5 57t46.5 166q7 155 7 457q0 271 -8 514q-3 98 -28 140q-4 6 -34 34q-25 24 -25 33q0 18 19 18q42 0 126.5 -5.5t126.5 -5.5q33 0 106 5q68 6 105 5l33 -1l9 -4l1 -11q0 -9 -28 -32.5t-28 -72.5q0 -70 171 -388q113 -202 225 -405q0 261 14 457 q2 29 18 96q16 62 16 97q0 58 -53 58q-43 0 -43 -49q0 -48 56 -50l6 -11q1 -39 -40 -66q-36 -25 -77 -25q-75 0 -126 74q-45 66 -45 144q0 109 83 186q80 75 190 75q120 0 190 -74t70 -195q0 -25 -6 -71q-7 -49 -8 -71q-26 -896 -26 -926q0 -74 33 -108q3 -2 34 -20 q24 -15 24 -25q0 -16 -31 -16q-35 0 -107 5.5t-108 5.5q-35 0 -105 -5t-105 -5t-42 5l-2 10q0 10 27 29t27 59q0 104 -414 824q-5 -160 -5 -331v-268q6 -202 38 -248q3 -4 33 -31q24 -22 24 -31q0 -17 -38 -17q-21 0 -61 4t-61 4q-34 0 -106.5 -4.5t-110.5 -3.5h-20l-8 4z M369 1633q0 -74 43 -74q32 0 37 22q-2 -8 -2 48q0 48 47 48q58 0 171.5 -54.5t180.5 -54.5q69 0 105 55q31 47 31 119q0 41 -17 82q-21 51 -56 51q-34 0 -34 -29q0 -1 16 -36.5t16 -59.5q0 -65 -77 -65q-35 0 -129.5 64.5t-154.5 64.5q-76 0 -126.5 -53t-50.5 -128z" />
<glyph unicode="&#xd2;" horiz-adv-x="1723" d="M121 771q0 328 215 532q211 202 544 202q334 0 573 -228q242 -232 242 -562q0 -324 -231 -550.5t-557 -226.5q-352 0 -573 243q-213 235 -213 590zM462 804q0 -241 114 -426q134 -218 362 -218q178 0 298 148q111 138 111 320q0 28 -3 50q-108 -312 -365 -312 q-131 0 -216 102q-80 96 -80 229q0 121 78 214q83 100 202 100q63 0 108 -36q49 -38 49 -99q0 -124 -70 -118l-9 1q-42 65 -73 65q-86 0 -86 -89q0 -52 50 -84q43 -28 98 -28q109 0 180 82q67 78 67 189q0 179 -115.5 288t-296.5 109q-198 0 -306 -149q-97 -133 -97 -338z M584 1782q0 38 27.5 62t65.5 24q65 0 176 -122l146 -178h-179l-138 88q-98 72 -98 126z" />
<glyph unicode="&#xd3;" horiz-adv-x="1723" d="M121 771q0 328 215 532q211 202 544 202q334 0 573 -228q242 -232 242 -562q0 -324 -231 -550.5t-557 -226.5q-352 0 -573 243q-213 235 -213 590zM462 804q0 -241 114 -426q134 -218 362 -218q178 0 298 148q111 138 111 320q0 28 -3 50q-108 -312 -365 -312 q-131 0 -216 102q-80 96 -80 229q0 121 78 214q83 100 202 100q63 0 108 -36q49 -38 49 -99q0 -124 -70 -118l-9 1q-42 65 -73 65q-86 0 -86 -89q0 -52 50 -84q43 -28 98 -28q109 0 180 82q67 78 67 189q0 179 -115.5 288t-296.5 109q-198 0 -306 -149q-97 -133 -97 -338z M767 1568q75 91 149 182q109 118 184 118q30 0 56 -25.5t26 -55.5q0 -60 -94 -129q-71 -45 -141 -90h-180z" />
<glyph unicode="&#xd4;" horiz-adv-x="1723" d="M121 771q0 328 215 532q211 202 544 202q334 0 573 -228q242 -232 242 -562q0 -324 -231 -550.5t-557 -226.5q-352 0 -573 243q-213 235 -213 590zM462 804q0 -241 114 -426q134 -218 362 -218q178 0 298 148q111 138 111 320q0 28 -3 50q-108 -312 -365 -312 q-131 0 -216 102q-80 96 -80 229q0 121 78 214q83 100 202 100q63 0 108 -36q49 -38 49 -99q0 -124 -70 -118l-9 1q-42 65 -73 65q-86 0 -86 -89q0 -52 50 -84q43 -28 98 -28q109 0 180 82q67 78 67 189q0 179 -115.5 288t-296.5 109q-198 0 -306 -149q-97 -133 -97 -338z M524 1568l159 186q54 63 74 79q44 35 101 35t101 -34q21 -17 74 -80l157 -186h-179l-153 99l-155 -99h-179z" />
<glyph unicode="&#xd5;" horiz-adv-x="1723" d="M121 771q0 328 215 532q211 202 544 202q334 0 573 -228q242 -232 242 -562q0 -324 -231 -550.5t-557 -226.5q-352 0 -573 243q-213 235 -213 590zM462 804q0 -241 114 -426q134 -218 362 -218q178 0 298 148q111 138 111 320q0 28 -3 50q-108 -312 -365 -312 q-131 0 -216 102q-80 96 -80 229q0 121 78 214q83 100 202 100q63 0 108 -36q49 -38 49 -99q0 -124 -70 -118l-9 1q-42 65 -73 65q-86 0 -86 -89q0 -52 50 -84q43 -28 98 -28q109 0 180 82q67 78 67 189q0 179 -115.5 288t-296.5 109q-198 0 -306 -149q-97 -133 -97 -338z M603 1633q0 -74 43 -74q32 0 36 22q-1 -8 -1 48q0 48 47 48q58 0 171.5 -54.5t180.5 -54.5q69 0 105 55q31 47 31 119q0 41 -17 82q-21 51 -57 51q-33 0 -33 -29q0 -1 16 -36.5t16 -59.5q0 -65 -77 -65q-36 0 -130 64.5t-155 64.5q-75 0 -125.5 -53t-50.5 -128z" />
<glyph unicode="&#xd6;" horiz-adv-x="1723" d="M121 771q0 328 215 532q211 202 544 202q334 0 573 -228q242 -232 242 -562q0 -324 -231 -550.5t-557 -226.5q-352 0 -573 243q-213 235 -213 590zM462 804q0 -241 114 -426q134 -218 362 -218q178 0 298 148q111 138 111 320q0 28 -3 50q-108 -312 -365 -312 q-131 0 -216 102q-80 96 -80 229q0 121 78 214q83 100 202 100q63 0 108 -36q49 -38 49 -99q0 -124 -70 -118l-9 1q-42 65 -73 65q-86 0 -86 -89q0 -52 50 -84q43 -28 98 -28q109 0 180 82q67 78 67 189q0 179 -115.5 288t-296.5 109q-198 0 -306 -149q-97 -133 -97 -338z M541 1690q0 53 35.5 86.5t88.5 33.5q47 0 83.5 -34.5t36.5 -81.5q0 -52 -33 -90t-85 -38q-53 0 -89.5 35.5t-36.5 88.5zM906 1690q0 53 36 86.5t89 33.5q46 0 83.5 -35.5t37.5 -81.5q0 -51 -34 -89t-85 -38q-52 0 -89.5 36t-37.5 88z" />
<glyph unicode="&#xd8;" horiz-adv-x="1723" d="M121 770q0 328 214 532q211 203 542 203q254 0 471 -145l117 142h211l-203 -248q105 -97 164 -247q57 -144 57 -293q0 -324 -230.5 -549.5t-555.5 -225.5q-246 0 -427 115l-93 -114h-213l181 220q-235 243 -235 610zM462 805q0 -225 96 -399l145 172q-20 67 -20 120 q0 121 78 214q82 98 201 98q46 0 83 -17l137 167q-108 131 -316 131q-199 0 -307 -149q-97 -132 -97 -337zM662 272q124 -112 276 -112q178 0 298 148q111 138 111 320q0 28 -3 50q-108 -312 -364 -312q-103 0 -186 66zM960 635q29 -12 70 -12q111 0 181 84q66 78 66 191 q0 56 -14 105l-151 -184q-8 -48 -49 -59z" />
<glyph unicode="&#xd9;" horiz-adv-x="1305" d="M110 1415q0 18 25 18q35 0 106.5 -5.5t107.5 -5.5q34 0 106 5q69 5 106 4h18l9 -4l2 -11q0 -12 -25 -34q-30 -27 -34 -32q-39 -60 -39 -617q0 -18 -1 -65t-1 -73q0 -190 40 -288q57 -143 206 -143q239 0 239 382q0 66 1 196.5t1 195.5q0 183 2 163q-8 123 -53 123 q-55 0 -55 -48q0 -45 36.5 -52t36.5 -25q0 -43 -36 -70q-33 -23 -78 -23q-88 0 -145 88q-48 77 -48 169q0 106 76 174q73 67 181 67q209 0 283 -193q46 -119 46 -368q0 -106 -9 -317.5t-9 -316.5q0 -188 33 -233q3 -4 34 -29q25 -21 25 -31l-2 -12q-13 -3 -29 -3 q-17 0 -52 4t-53 4q-32 0 -96 -11t-96 -11l-6 2q-1 3 -1 15q0 24 -19 24q-12 0 -127 -44t-199 -44q-285 0 -373 263q-45 137 -45 496l1 286v190q-6 137 -34 177q-3 5 -32 31q-24 22 -24 32zM415 1782q0 38 27 62t65 24q65 0 176 -122q73 -89 147 -178h-180q-68 44 -137 88 q-98 71 -98 126z" />
<glyph unicode="&#xda;" horiz-adv-x="1305" d="M110 1415q0 18 25 18q35 0 106.5 -5.5t107.5 -5.5q34 0 106 5q69 5 106 4h18l9 -4l2 -11q0 -12 -25 -34q-30 -27 -34 -32q-39 -60 -39 -617q0 -18 -1 -65t-1 -73q0 -190 40 -288q57 -143 206 -143q239 0 239 382q0 66 1 196.5t1 195.5q0 183 2 163q-8 123 -53 123 q-55 0 -55 -48q0 -45 36.5 -52t36.5 -25q0 -43 -36 -70q-33 -23 -78 -23q-88 0 -145 88q-48 77 -48 169q0 106 76 174q73 67 181 67q209 0 283 -193q46 -119 46 -368q0 -106 -9 -317.5t-9 -316.5q0 -188 33 -233q3 -4 34 -29q25 -21 25 -31l-2 -12q-13 -3 -29 -3 q-17 0 -52 4t-53 4q-32 0 -96 -11t-96 -11l-6 2q-1 3 -1 15q0 24 -19 24q-12 0 -127 -44t-199 -44q-285 0 -373 263q-45 137 -45 496l1 286v190q-6 137 -34 177q-3 5 -32 31q-24 22 -24 32zM635 1568q74 91 148 183q108 117 184 117q30 0 56.5 -25.5t26.5 -55.5 q0 -60 -94 -129q-71 -45 -141 -90h-180z" />
<glyph unicode="&#xdb;" horiz-adv-x="1305" d="M110 1415q0 18 25 18q35 0 106.5 -5.5t107.5 -5.5q34 0 106 5q69 5 106 4h18l9 -4l2 -11q0 -12 -25 -34q-30 -27 -34 -32q-39 -60 -39 -617q0 -18 -1 -65t-1 -73q0 -190 40 -288q57 -143 206 -143q239 0 239 382q0 66 1 196.5t1 195.5q0 183 2 163q-8 123 -53 123 q-55 0 -55 -48q0 -45 36.5 -52t36.5 -25q0 -43 -36 -70q-33 -23 -78 -23q-88 0 -145 88q-48 77 -48 169q0 106 76 174q73 67 181 67q209 0 283 -193q46 -119 46 -368q0 -106 -9 -317.5t-9 -316.5q0 -188 33 -233q3 -4 34 -29q25 -21 25 -31l-2 -12q-13 -3 -29 -3 q-17 0 -52 4t-53 4q-32 0 -96 -11t-96 -11l-6 2q-1 3 -1 15q0 24 -19 24q-12 0 -127 -44t-199 -44q-285 0 -373 263q-45 137 -45 496l1 286v190q-6 137 -34 177q-3 5 -32 31q-24 22 -24 32zM353 1568l158 186q54 63 74 79q44 35 101 35t101 -34q22 -17 75 -80l156 -186h-179 l-153 100l-154 -100h-179z" />
<glyph unicode="&#xdc;" horiz-adv-x="1305" d="M110 1415q0 18 25 18q35 0 106.5 -5.5t107.5 -5.5q34 0 106 5q69 5 106 4h18l9 -4l2 -11q0 -12 -25 -34q-30 -27 -34 -32q-39 -60 -39 -617q0 -18 -1 -65t-1 -73q0 -190 40 -288q57 -143 206 -143q239 0 239 382q0 66 1 196.5t1 195.5q0 183 2 163q-8 123 -53 123 q-55 0 -55 -48q0 -45 36.5 -52t36.5 -25q0 -43 -36 -70q-33 -23 -78 -23q-88 0 -145 88q-48 77 -48 169q0 106 76 174q73 67 181 67q209 0 283 -193q46 -119 46 -368q0 -106 -9 -317.5t-9 -316.5q0 -188 33 -233q3 -4 34 -29q25 -21 25 -31l-2 -12q-13 -3 -29 -3 q-17 0 -52 4t-53 4q-32 0 -96 -11t-96 -11l-6 2q-1 3 -1 15q0 24 -19 24q-12 0 -127 -44t-199 -44q-285 0 -373 263q-45 137 -45 496l1 286v190q-6 137 -34 177q-3 5 -32 31q-24 22 -24 32zM386 1690q0 53 34.5 86.5t88.5 33.5q46 0 83.5 -35t37.5 -81q0 -52 -33 -90 t-85 -38t-89 36t-37 88zM752 1690q0 53 34.5 86.5t88.5 33.5q46 0 83.5 -35.5t37.5 -80.5q0 -52 -33.5 -90t-84.5 -38q-53 0 -89.5 35.5t-36.5 88.5z" />
<glyph unicode="&#xdf;" horiz-adv-x="2232" d="M123 341q0 129 81.5 220.5t209.5 91.5q120 0 207 -60q98 -68 98 -183q0 -134 -116 -155v14q1 67 -61 67q-84 0 -84 -81q0 -51 53 -82q45 -26 100 -26q108 0 185 97q72 90 72 200q0 161 -171 248q-159 69 -317 138q-171 100 -171 293q0 176 150 284q135 97 319 97 q148 0 261 -68q133 -81 133 -220q0 -103 -54 -169q-58 -72 -159 -72q-72 0 -130 46q-63 49 -63 120q0 26 7 61q41 -21 57 -21q25 0 45 18t20 42q0 34 -31 57.5t-66 23.5q-74 0 -127.5 -48.5t-53.5 -122.5q0 -17 5 -36q30 -115 212 -193q270 -115 311 -145q160 -115 160 -335 q0 -237 -183 -377q-167 -126 -413 -126q-198 0 -334 100q-152 111 -152 302zM1247 341q0 129 81.5 220.5t209.5 91.5q120 0 207 -60q98 -68 98 -183q0 -134 -115 -155v14q1 67 -61 67q-85 0 -85 -81q0 -51 54 -82q45 -26 100 -26q107 0 184 97q72 90 72 200q0 161 -171 248 q-158 69 -317 138q-171 100 -171 293q0 176 150 284q135 97 319 97q149 0 261 -68q133 -81 133 -220q0 -103 -53 -169q-58 -72 -159 -72q-73 0 -131 46q-63 49 -63 120q0 26 7 61q41 -21 57 -21q25 0 45 18t20 42q0 34 -31 57.5t-65 23.5q-75 0 -128 -48.5t-53 -122.5 q0 -17 5 -36q30 -115 211 -193q271 -115 312 -145q160 -115 160 -335q0 -237 -184 -377q-166 -126 -412 -126q-199 0 -335 100q-152 111 -152 302z" />
<glyph unicode="&#xe0;" d="M69 15q0 11 12 19q86 62 107 86q30 35 63 126l271 747q43 117 43 185q0 76 -49 76q-51 0 -51 -52q0 -33 44 -43q-14 -110 -98 -110q-58 0 -103 69q-40 61 -40 122q0 141 108 225q99 77 245 77q161 0 243 -104q57 -72 103 -251l206 -789q53 -203 120 -203q68 0 68 77 q0 20 -13 41.5t-15 29.5l13 6q54 -3 84 -57q24 -45 24 -104q0 -108 -89 -181q-84 -69 -195 -69q-118 0 -180 92q-52 85 -103 170q-79 92 -239 92q-77 0 -137 -50q-63 -53 -63 -131q0 -36 50 -60.5t50 -40.5q0 -11 -19 -11q-37 0 -111 5t-111 5q-33 0 -99 -5t-99 -5 q-32 0 -39 5zM341 1820q0 38 27 62.5t66 24.5q66 0 176 -122q73 -90 146 -179h-179l-138 88q-98 72 -98 126zM603 527q0 -39 42 -49q16 -4 74 -4q70 0 90 29v12q0 6 -93 334q-35 -80 -70 -159q-43 -105 -43 -163z" />
<glyph unicode="&#xe1;" d="M69 15q0 11 12 19q86 62 107 86q30 35 63 126l271 747q43 117 43 185q0 76 -49 76q-51 0 -51 -52q0 -33 44 -43q-14 -110 -98 -110q-58 0 -103 69q-40 61 -40 122q0 141 108 225q99 77 245 77q161 0 243 -104q57 -72 103 -251l206 -789q53 -203 120 -203q68 0 68 77 q0 20 -13 41.5t-15 29.5l13 6q54 -3 84 -57q24 -45 24 -104q0 -108 -89 -181q-84 -69 -195 -69q-118 0 -180 92q-52 85 -103 170q-79 92 -239 92q-77 0 -137 -50q-63 -53 -63 -131q0 -36 50 -60.5t50 -40.5q0 -11 -19 -11q-37 0 -111 5t-111 5q-33 0 -99 -5t-99 -5 q-32 0 -39 5zM545 1606q68 84 136 169q119 132 187 132q35 0 63.5 -23.5t28.5 -57.5q0 -61 -96 -132l-140 -88h-179zM603 527q0 -39 42 -49q16 -4 74 -4q70 0 90 29v12q0 6 -93 334q-35 -80 -70 -159q-43 -105 -43 -163z" />
<glyph unicode="&#xe2;" d="M69 15q0 11 12 19q86 62 107 86q30 35 63 126l271 747q43 117 43 185q0 76 -49 76q-51 0 -51 -52q0 -33 44 -43q-14 -110 -98 -110q-58 0 -103 69q-40 61 -40 122q0 141 108 225q99 77 245 77q161 0 243 -104q57 -72 103 -251l206 -789q53 -203 120 -203q68 0 68 77 q0 20 -13 41.5t-15 29.5l13 6q54 -3 84 -57q24 -45 24 -104q0 -108 -89 -181q-84 -69 -195 -69q-118 0 -180 92q-52 85 -103 170q-79 92 -239 92q-77 0 -137 -50q-63 -53 -63 -131q0 -36 50 -60.5t50 -40.5q0 -11 -19 -11q-37 0 -111 5t-111 5q-33 0 -99 -5t-99 -5 q-32 0 -39 5zM328 1606l157 187q50 61 74 79q44 34 101 34q58 0 101 -34q22 -16 74 -79l159 -187h-179l-155 101l-153 -101h-179zM603 527q0 -39 42 -49q16 -4 74 -4q70 0 90 29v12q0 6 -93 334q-35 -80 -70 -159q-43 -105 -43 -163z" />
<glyph unicode="&#xe3;" d="M69 15q0 11 12 19q86 62 107 86q30 35 63 126l271 747q43 117 43 185q0 76 -49 76q-51 0 -51 -52q0 -33 44 -43q-14 -110 -98 -110q-58 0 -103 69q-40 61 -40 122q0 141 108 225q99 77 245 77q161 0 243 -104q57 -72 103 -251l206 -789q53 -203 120 -203q68 0 68 77 q0 20 -13 41.5t-15 29.5l13 6q54 -3 84 -57q24 -45 24 -104q0 -108 -89 -181q-84 -69 -195 -69q-118 0 -180 92q-52 85 -103 170q-79 92 -239 92q-77 0 -137 -50q-63 -53 -63 -131q0 -36 50 -60.5t50 -40.5q0 -11 -19 -11q-37 0 -111 5t-111 5q-33 0 -99 -5t-99 -5 q-32 0 -39 5zM369 1672q0 -74 44 -74q32 0 36 22q-2 -9 -2 48q0 46 47 46q58 0 171.5 -54t180.5 -54q69 0 105 55q31 47 31 119q0 41 -17 81q-22 52 -57 52q-33 0 -33 -28l16 -36.5t16 -60.5q0 -29 -23.5 -47.5t-53.5 -18.5q-35 0 -129.5 65.5t-154.5 65.5q-76 0 -126.5 -53 t-50.5 -128zM603 527q0 -39 42 -49q16 -4 74 -4q70 0 90 29v12q0 6 -93 334q-35 -80 -70 -159q-43 -105 -43 -163z" />
<glyph unicode="&#xe4;" d="M69 15q0 11 12 19q86 62 107 86q30 35 63 126l271 747q43 117 43 185q0 76 -49 76q-51 0 -51 -52q0 -33 44 -43q-14 -110 -98 -110q-58 0 -103 69q-40 61 -40 122q0 141 108 225q99 77 245 77q161 0 243 -104q57 -72 103 -251l206 -789q53 -203 120 -203q68 0 68 77 q0 20 -13 41.5t-15 29.5l13 6q54 -3 84 -57q24 -45 24 -104q0 -108 -89 -181q-84 -69 -195 -69q-118 0 -180 92q-52 85 -103 170q-79 92 -239 92q-77 0 -137 -50q-63 -53 -63 -131q0 -36 50 -60.5t50 -40.5q0 -11 -19 -11q-37 0 -111 5t-111 5q-33 0 -99 -5t-99 -5 q-32 0 -39 5zM346 1728q0 54 36 87t90 33q46 0 82 -35t36 -81q0 -50 -32 -88q-35 -39 -85 -39q-52 0 -89.5 35.5t-37.5 87.5zM603 527q0 -39 42 -49q16 -4 74 -4q70 0 90 29v12q0 6 -93 334q-35 -80 -70 -159q-43 -105 -43 -163zM712 1728q0 54 35.5 87.5t90.5 33.5 q45 0 81.5 -35.5t36.5 -81.5q0 -50 -33.5 -88.5t-84.5 -38.5t-88.5 35.5t-37.5 87.5z" />
<glyph unicode="&#xe5;" d="M69 15q0 11 12 19q86 62 107 86q30 35 63 126l271 747q43 117 43 185q0 76 -49 76q-51 0 -51 -52q0 -33 44 -43q-14 -110 -98 -110q-58 0 -103 69q-40 61 -40 122q0 141 108 225q99 77 245 77q161 0 243 -104q57 -72 103 -251l206 -789q53 -203 120 -203q68 0 68 77 q0 20 -13 41.5t-15 29.5l13 6q54 -3 84 -57q24 -45 24 -104q0 -108 -89 -181q-84 -69 -195 -69q-118 0 -180 92q-52 85 -103 170q-79 92 -239 92q-77 0 -137 -50q-63 -53 -63 -131q0 -36 50 -60.5t50 -40.5q0 -11 -19 -11q-37 0 -111 5t-111 5q-33 0 -99 -5t-99 -5 q-32 0 -39 5zM451 1793q0 90 58.5 147t148.5 57q74 0 129.5 -59t55.5 -133q0 -80 -56 -139.5t-137 -59.5q-82 0 -140.5 53t-58.5 134zM539 1796q0 -42 33.5 -72t76.5 -30t74.5 33.5t31.5 76.5q0 39 -32 71.5t-71 32.5q-48 0 -80.5 -32t-32.5 -80zM603 527q0 -39 42 -49 q16 -4 74 -4q70 0 90 29v12q0 6 -93 334q-35 -80 -70 -159q-43 -105 -43 -163z" />
<glyph unicode="&#xe6;" horiz-adv-x="1838" d="M53 4q-1 22 35 42q28 14 55 28q67 48 134 172l402 747q79 149 79 221q0 40 -37 40q-64 0 -64 -59q0 -27 37 -36q-29 -109 -116 -109q-48 0 -82 53q-30 48 -30 98q0 151 132 250q121 91 278 91q167 0 229 -119q58 3 193 20q124 16 193 16q200 0 200 -161q0 -107 -86 -179 q-82 -68 -191 -68q-35 0 -75 11q-52 15 -53 38q77 46 77 109q0 102 -115 102q-42 0 -56 -13q-17 -110 -17 -311v-39q96 -107 221 -107q156 0 248 134q17 -67 17 -127q0 -111 -64 -190q-69 -84 -178 -84q-94 0 -168 64l-76 72q-5 -9 -5 -103q0 -461 174 -461q46 0 81.5 31 t35.5 76q0 29 -18 55q-21 28 -48 28q-24 0 -66 -21q48 168 241 168q117 0 182 -72q61 -69 61 -187q0 -137 -115 -204q-93 -54 -240 -54q-72 0 -214.5 21.5t-213.5 21.5q-31 0 -101 -6q-65 -5 -101 -4l-33 1l-9 4l-1 9q0 8 22 31q28 29 43 62q23 51 25 127q-75 59 -196 59 q-77 0 -151 -56q-80 -60 -80 -135q0 -29 42 -51.5t42 -35.5q0 -15 -21 -15q-36 0 -110 5t-111 5q-30 0 -99 -5q-65 -6 -100 -5l-30 1zM678 514q0 -39 95 -39q55 0 108 11v413q-61 -95 -121 -190q-82 -140 -82 -195z" />
<glyph unicode="&#xe7;" horiz-adv-x="1687" d="M128 748q0 327 232 543q227 211 558 211q287 0 504 -180q231 -191 231 -471q0 -180 -96 -298q-104 -127 -280 -127q-128 0 -221 76q-98 82 -98 208q0 78 48.5 135.5t125.5 57.5q52 0 91 -26q44 -30 44 -80q0 -28 -9 -46l-9 1q-50 0 -50 -58q0 -17 16 -31t33 -14 q97 0 97 155q0 200 -133 349q-139 155 -336 155q-198 0 -304 -161q-92 -138 -92 -345q0 -237 100 -432q124 -242 339 -242q71 0 121 30q60 36 60 102q0 10 -5.5 29t-5.5 29q0 16 18 16q32 0 93.5 -18.5t94.5 -18.5q47 0 134 31.5t118 31.5l7 -15q-52 -91 -105 -182 q-59 -92 -152 -141q-159 -84 -409 -84q-11 -39 -28 -68q22 6 37 6q114 0 181 -91q59 -81 59 -199q0 -108 -74 -175.5t-184 -67.5q-97 0 -167 57q-75 61 -75 156q0 158 147 158q47 0 86 -29q43 -32 43 -77q0 -81 -65 -81q-33 0 -28 45q21 3 21 13q0 21 -13 24q-36 -2 -36 -43 q0 -31 23 -54.5t54 -23.5q114 0 114 135q0 69 -49.5 115t-119.5 46q-65 0 -128 -28q-14 2 -14 12q0 9 36 85q40 84 44 98q-295 52 -464 277q-160 214 -160 520z" />
<glyph unicode="&#xe8;" horiz-adv-x="1169" d="M121 15q0 11 25 34q31 28 35 34q30 47 36 290q1 13 1 317q0 271 -7 518q-3 102 -33 145q-3 4 -33 30q-24 21 -24 32q0 16 43 16q30 0 92 -5t93 -5q83 0 246 18.5t244 18.5q82 0 132 -38q56 -43 56 -122q0 -107 -86 -179q-82 -68 -191 -68q-35 0 -74 11q-53 14 -54 38 q78 46 78 109q0 102 -116 102q-41 0 -56 -13q-17 -110 -17 -312v-38q95 -107 221 -107q156 0 248 134q17 -67 17 -127q0 -111 -64 -190q-69 -84 -178 -84q-96 0 -170 64q-36 36 -73 72q-6 -9 -6 -103q0 -462 174 -462q46 0 82 31.5t36 76.5q0 29 -20 56t-47 27 q-24 0 -67 -21q51 169 242 169q119 0 182 -74q60 -69 60 -189q0 -135 -115 -201q-92 -54 -238 -54q-72 0 -214.5 21.5t-214.5 21.5q-31 0 -101 -6q-65 -5 -101 -4l-33 1l-8 4zM282 1783q0 38 27 61.5t65 23.5q66 0 177 -121q73 -90 147 -179h-180q-69 44 -138 89 q-98 71 -98 126z" />
<glyph unicode="&#xe9;" horiz-adv-x="1169" d="M121 15q0 11 25 34q31 28 35 34q30 47 36 290q1 13 1 317q0 271 -7 518q-3 102 -33 145q-3 4 -33 30q-24 21 -24 32q0 16 43 16q30 0 92 -5t93 -5q83 0 246 18.5t244 18.5q82 0 132 -38q56 -43 56 -122q0 -107 -86 -179q-82 -68 -191 -68q-35 0 -74 11q-53 14 -54 38 q78 46 78 109q0 102 -116 102q-41 0 -56 -13q-17 -110 -17 -312v-38q95 -107 221 -107q156 0 248 134q17 -67 17 -127q0 -111 -64 -190q-69 -84 -178 -84q-96 0 -170 64q-36 36 -73 72q-6 -9 -6 -103q0 -462 174 -462q46 0 82 31.5t36 76.5q0 29 -20 56t-47 27 q-24 0 -67 -21q51 169 242 169q119 0 182 -74q60 -69 60 -189q0 -135 -115 -201q-92 -54 -238 -54q-72 0 -214.5 21.5t-214.5 21.5q-31 0 -101 -6q-65 -5 -101 -4l-33 1l-8 4zM436 1568q74 91 149 182q109 118 184 118q30 0 56 -25t26 -55q0 -59 -95 -130q-71 -45 -141 -90 h-179z" />
<glyph unicode="&#xea;" horiz-adv-x="1169" d="M121 15q0 11 25 34q31 28 35 34q30 47 36 290q1 13 1 317q0 271 -7 518q-3 102 -33 145q-3 4 -33 30q-24 21 -24 32q0 16 43 16q30 0 92 -5t93 -5q83 0 246 18.5t244 18.5q82 0 132 -38q56 -43 56 -122q0 -107 -86 -179q-82 -68 -191 -68q-35 0 -74 11q-53 14 -54 38 q78 46 78 109q0 102 -116 102q-41 0 -56 -13q-17 -110 -17 -312v-38q95 -107 221 -107q156 0 248 134q17 -67 17 -127q0 -111 -64 -190q-69 -84 -178 -84q-96 0 -170 64q-36 36 -73 72q-6 -9 -6 -103q0 -462 174 -462q46 0 82 31.5t36 76.5q0 29 -20 56t-47 27 q-24 0 -67 -21q51 169 242 169q119 0 182 -74q60 -69 60 -189q0 -135 -115 -201q-92 -54 -238 -54q-72 0 -214.5 21.5t-214.5 21.5q-31 0 -101 -6q-65 -5 -101 -4l-33 1l-8 4zM249 1568l158 186q54 62 75 79q44 35 101 35q56 0 100 -35q22 -17 75 -79l158 -186h-181 l-152 100l-155 -100h-179z" />
<glyph unicode="&#xeb;" horiz-adv-x="1169" d="M121 15q0 11 25 34q31 28 35 34q30 47 36 290q1 13 1 317q0 271 -7 518q-3 102 -33 145q-3 4 -33 30q-24 21 -24 32q0 16 43 16q30 0 92 -5t93 -5q83 0 246 18.5t244 18.5q82 0 132 -38q56 -43 56 -122q0 -107 -86 -179q-82 -68 -191 -68q-35 0 -74 11q-53 14 -54 38 q78 46 78 109q0 102 -116 102q-41 0 -56 -13q-17 -110 -17 -312v-38q95 -107 221 -107q156 0 248 134q17 -67 17 -127q0 -111 -64 -190q-69 -84 -178 -84q-96 0 -170 64q-36 36 -73 72q-6 -9 -6 -103q0 -462 174 -462q46 0 82 31.5t36 76.5q0 29 -20 56t-47 27 q-24 0 -67 -21q51 169 242 169q119 0 182 -74q60 -69 60 -189q0 -135 -115 -201q-92 -54 -238 -54q-72 0 -214.5 21.5t-214.5 21.5q-31 0 -101 -6q-65 -5 -101 -4l-33 1l-8 4zM269 1650q0 49 32 85t81 36q53 0 91 -30q40 -33 40 -85t-33.5 -90.5t-86.5 -38.5q-51 0 -87.5 36 t-36.5 87zM635 1651q0 48 32 84t81 36q53 0 90 -31q41 -32 41 -84q0 -53 -33.5 -91t-86.5 -38q-52 0 -88 35.5t-36 88.5z" />
<glyph unicode="&#xec;" horiz-adv-x="584" d="M25 1743q0 38 27.5 62.5t65.5 24.5q66 0 176 -122q73 -90 145 -179h-179q-68 44 -137 88q-98 73 -98 126zM100 14q0 12 26 37q31 29 35 36q34 61 34 600q0 269 -7 521q-2 94 -28 138q-4 6 -34 35q-26 24 -26 33q0 19 25 19q36 0 107.5 -5.5t106.5 -5.5q31 0 100 5 q65 6 101 5l30 -1l9 -4l2 -11q0 -12 -25 -33q-30 -27 -33 -32q-33 -48 -39 -292q0 8 0 -320q0 -273 7 -518q2 -92 29 -136q4 -6 34 -35q27 -25 27 -33q0 -18 -20 -18q-36 0 -110 5t-112 5q-37 0 -113.5 -4.5t-115.5 -4.5l-8 4z" />
<glyph unicode="&#xed;" horiz-adv-x="584" d="M100 14q0 12 26 37q31 29 35 36q34 61 34 600q0 269 -7 521q-2 94 -28 138q-4 6 -34 35q-26 24 -26 33q0 19 25 19q36 0 107.5 -5.5t106.5 -5.5q31 0 100 5q65 6 101 5l30 -1l9 -4l2 -11q0 -12 -25 -33q-30 -27 -33 -32q-33 -48 -39 -292q0 8 0 -320q0 -273 7 -518 q2 -92 29 -136q4 -6 34 -35q27 -25 27 -33q0 -18 -20 -18q-36 0 -110 5t-112 5q-37 0 -113.5 -4.5t-115.5 -4.5l-8 4zM264 1529q74 91 149 182q109 118 184 118q30 0 56.5 -25.5t26.5 -55.5q0 -58 -95 -129l-140 -90h-181z" />
<glyph unicode="&#xee;" horiz-adv-x="584" d="M21 1529l158 185q54 63 75 80q44 35 100 35q57 0 101 -35q21 -16 75 -80l158 -185h-179l-155 101l-154 -101h-179zM100 14q0 12 26 37q31 29 35 36q34 61 34 600q0 269 -7 521q-2 94 -28 138q-4 6 -34 35q-26 24 -26 33q0 19 25 19q36 0 107.5 -5.5t106.5 -5.5 q31 0 100 5q65 6 101 5l30 -1l9 -4l2 -11q0 -12 -25 -33q-30 -27 -33 -32q-33 -48 -39 -292q0 8 0 -320q0 -273 7 -518q2 -92 29 -136q4 -6 34 -35q27 -25 27 -33q0 -18 -20 -18q-36 0 -110 5t-112 5q-37 0 -113.5 -4.5t-115.5 -4.5l-8 4z" />
<glyph unicode="&#xef;" horiz-adv-x="584" d="M31 1650q0 49 32.5 85t81.5 36q52 0 91.5 -32t39.5 -84t-34.5 -90t-86.5 -38q-51 0 -87.5 36t-36.5 87zM100 14q0 12 26 37q31 29 35 36q34 61 34 600q0 269 -7 521q-2 94 -28 138q-4 6 -34 35q-26 24 -26 33q0 19 25 19q36 0 107.5 -5.5t106.5 -5.5q31 0 100 5 q65 6 101 5l30 -1l9 -4l2 -11q0 -12 -25 -33q-30 -27 -33 -32q-33 -48 -39 -292q0 8 0 -320q0 -273 7 -518q2 -92 29 -136q4 -6 34 -35q27 -25 27 -33q0 -18 -20 -18q-36 0 -110 5t-112 5q-37 0 -113.5 -4.5t-115.5 -4.5l-8 4zM397 1651q0 48 32.5 84t80.5 36q53 0 92 -31.5 t39 -83.5q0 -53 -33.5 -91t-86.5 -38q-52 0 -88 36t-36 88z" />
<glyph unicode="&#xf1;" horiz-adv-x="1313" d="M116 14q0 -8 41.5 57t46.5 166q7 155 7 457q0 271 -8 514q-3 98 -28 140q-4 6 -34 34q-25 24 -25 33q0 18 19 18q42 0 126.5 -5.5t126.5 -5.5q33 0 106 5q68 6 105 5l33 -1l9 -4l1 -11q0 -9 -28 -32.5t-28 -72.5q0 -70 171 -388q113 -202 225 -405q0 261 14 457 q2 29 18 96q16 62 16 97q0 58 -53 58q-43 0 -43 -49q0 -48 56 -50l6 -11q1 -39 -40 -66q-36 -25 -77 -25q-75 0 -126 74q-45 66 -45 144q0 109 83 186q80 75 190 75q120 0 190 -74t70 -195q0 -25 -6 -71q-7 -49 -8 -71q-26 -896 -26 -926q0 -74 33 -108q3 -2 34 -20 q24 -15 24 -25q0 -16 -31 -16q-35 0 -107 5.5t-108 5.5q-35 0 -105 -5t-105 -5t-42 5l-2 10q0 10 27 29t27 59q0 104 -414 824q-5 -160 -5 -331v-268q6 -202 38 -248q3 -4 33 -31q24 -22 24 -31q0 -17 -38 -17q-21 0 -61 4t-61 4q-34 0 -106.5 -4.5t-110.5 -3.5h-20l-8 4z M369 1633q0 -74 43 -74q32 0 37 22q-2 -8 -2 48q0 48 47 48q58 0 171.5 -54.5t180.5 -54.5q69 0 105 55q31 47 31 119q0 41 -17 82q-21 51 -56 51q-34 0 -34 -29q0 -1 16 -36.5t16 -59.5q0 -65 -77 -65q-35 0 -129.5 64.5t-154.5 64.5q-76 0 -126.5 -53t-50.5 -128z" />
<glyph unicode="&#xf2;" horiz-adv-x="1723" d="M121 771q0 328 215 532q211 202 544 202q334 0 573 -228q242 -232 242 -562q0 -324 -231 -550.5t-557 -226.5q-352 0 -573 243q-213 235 -213 590zM462 804q0 -241 114 -426q134 -218 362 -218q178 0 298 148q111 138 111 320q0 28 -3 50q-108 -312 -365 -312 q-131 0 -216 102q-80 96 -80 229q0 121 78 214q83 100 202 100q63 0 108 -36q49 -38 49 -99q0 -124 -70 -118l-9 1q-42 65 -73 65q-86 0 -86 -89q0 -52 50 -84q43 -28 98 -28q109 0 180 82q67 78 67 189q0 179 -115.5 288t-296.5 109q-198 0 -306 -149q-97 -133 -97 -338z M584 1782q0 38 27.5 62t65.5 24q65 0 176 -122l146 -178h-179l-138 88q-98 72 -98 126z" />
<glyph unicode="&#xf3;" horiz-adv-x="1723" d="M121 771q0 328 215 532q211 202 544 202q334 0 573 -228q242 -232 242 -562q0 -324 -231 -550.5t-557 -226.5q-352 0 -573 243q-213 235 -213 590zM462 804q0 -241 114 -426q134 -218 362 -218q178 0 298 148q111 138 111 320q0 28 -3 50q-108 -312 -365 -312 q-131 0 -216 102q-80 96 -80 229q0 121 78 214q83 100 202 100q63 0 108 -36q49 -38 49 -99q0 -124 -70 -118l-9 1q-42 65 -73 65q-86 0 -86 -89q0 -52 50 -84q43 -28 98 -28q109 0 180 82q67 78 67 189q0 179 -115.5 288t-296.5 109q-198 0 -306 -149q-97 -133 -97 -338z M767 1568q75 91 149 182q109 118 184 118q30 0 56 -25.5t26 -55.5q0 -60 -94 -129q-71 -45 -141 -90h-180z" />
<glyph unicode="&#xf4;" horiz-adv-x="1723" d="M121 771q0 328 215 532q211 202 544 202q334 0 573 -228q242 -232 242 -562q0 -324 -231 -550.5t-557 -226.5q-352 0 -573 243q-213 235 -213 590zM462 804q0 -241 114 -426q134 -218 362 -218q178 0 298 148q111 138 111 320q0 28 -3 50q-108 -312 -365 -312 q-131 0 -216 102q-80 96 -80 229q0 121 78 214q83 100 202 100q63 0 108 -36q49 -38 49 -99q0 -124 -70 -118l-9 1q-42 65 -73 65q-86 0 -86 -89q0 -52 50 -84q43 -28 98 -28q109 0 180 82q67 78 67 189q0 179 -115.5 288t-296.5 109q-198 0 -306 -149q-97 -133 -97 -338z M524 1568l159 186q54 63 74 79q44 35 101 35t101 -34q21 -17 74 -80l157 -186h-179l-153 99l-155 -99h-179z" />
<glyph unicode="&#xf5;" horiz-adv-x="1723" d="M121 771q0 328 215 532q211 202 544 202q334 0 573 -228q242 -232 242 -562q0 -324 -231 -550.5t-557 -226.5q-352 0 -573 243q-213 235 -213 590zM462 804q0 -241 114 -426q134 -218 362 -218q178 0 298 148q111 138 111 320q0 28 -3 50q-108 -312 -365 -312 q-131 0 -216 102q-80 96 -80 229q0 121 78 214q83 100 202 100q63 0 108 -36q49 -38 49 -99q0 -124 -70 -118l-9 1q-42 65 -73 65q-86 0 -86 -89q0 -52 50 -84q43 -28 98 -28q109 0 180 82q67 78 67 189q0 179 -115.5 288t-296.5 109q-198 0 -306 -149q-97 -133 -97 -338z M603 1633q0 -74 43 -74q32 0 36 22q-1 -8 -1 48q0 48 47 48q58 0 171.5 -54.5t180.5 -54.5q69 0 105 55q31 47 31 119q0 41 -17 82q-21 51 -57 51q-33 0 -33 -29q0 -1 16 -36.5t16 -59.5q0 -65 -77 -65q-36 0 -130 64.5t-155 64.5q-75 0 -125.5 -53t-50.5 -128z" />
<glyph unicode="&#xf6;" horiz-adv-x="1723" d="M121 771q0 328 215 532q211 202 544 202q334 0 573 -228q242 -232 242 -562q0 -324 -231 -550.5t-557 -226.5q-352 0 -573 243q-213 235 -213 590zM462 804q0 -241 114 -426q134 -218 362 -218q178 0 298 148q111 138 111 320q0 28 -3 50q-108 -312 -365 -312 q-131 0 -216 102q-80 96 -80 229q0 121 78 214q83 100 202 100q63 0 108 -36q49 -38 49 -99q0 -124 -70 -118l-9 1q-42 65 -73 65q-86 0 -86 -89q0 -52 50 -84q43 -28 98 -28q109 0 180 82q67 78 67 189q0 179 -115.5 288t-296.5 109q-198 0 -306 -149q-97 -133 -97 -338z M541 1690q0 53 35.5 86.5t88.5 33.5q47 0 83.5 -34.5t36.5 -81.5q0 -52 -33 -90t-85 -38q-53 0 -89.5 35.5t-36.5 88.5zM906 1690q0 53 36 86.5t89 33.5q46 0 83.5 -35.5t37.5 -81.5q0 -51 -34 -89t-85 -38q-52 0 -89.5 36t-37.5 88z" />
<glyph unicode="&#xf8;" horiz-adv-x="1723" d="M121 770q0 328 214 532q211 203 542 203q254 0 471 -145l117 142h211l-203 -248q105 -97 164 -247q57 -144 57 -293q0 -324 -230.5 -549.5t-555.5 -225.5q-246 0 -427 115l-93 -114h-213l181 220q-235 243 -235 610zM462 805q0 -225 96 -399l145 172q-20 67 -20 120 q0 121 78 214q82 98 201 98q46 0 83 -17l137 167q-108 131 -316 131q-199 0 -307 -149q-97 -132 -97 -337zM662 272q124 -112 276 -112q178 0 298 148q111 138 111 320q0 28 -3 50q-108 -312 -364 -312q-103 0 -186 66zM960 635q29 -12 70 -12q111 0 181 84q66 78 66 191 q0 56 -14 105l-151 -184q-8 -48 -49 -59z" />
<glyph unicode="&#xf9;" horiz-adv-x="1305" d="M110 1415q0 18 25 18q35 0 106.5 -5.5t107.5 -5.5q34 0 106 5q69 5 106 4h18l9 -4l2 -11q0 -12 -25 -34q-30 -27 -34 -32q-39 -60 -39 -617q0 -18 -1 -65t-1 -73q0 -190 40 -288q57 -143 206 -143q239 0 239 382q0 66 1 196.5t1 195.5q0 183 2 163q-8 123 -53 123 q-55 0 -55 -48q0 -45 36.5 -52t36.5 -25q0 -43 -36 -70q-33 -23 -78 -23q-88 0 -145 88q-48 77 -48 169q0 106 76 174q73 67 181 67q209 0 283 -193q46 -119 46 -368q0 -106 -9 -317.5t-9 -316.5q0 -188 33 -233q3 -4 34 -29q25 -21 25 -31l-2 -12q-13 -3 -29 -3 q-17 0 -52 4t-53 4q-32 0 -96 -11t-96 -11l-6 2q-1 3 -1 15q0 24 -19 24q-12 0 -127 -44t-199 -44q-285 0 -373 263q-45 137 -45 496l1 286v190q-6 137 -34 177q-3 5 -32 31q-24 22 -24 32zM415 1782q0 38 27 62t65 24q65 0 176 -122q73 -89 147 -178h-180q-68 44 -137 88 q-98 71 -98 126z" />
<glyph unicode="&#xfa;" horiz-adv-x="1305" d="M110 1415q0 18 25 18q35 0 106.5 -5.5t107.5 -5.5q34 0 106 5q69 5 106 4h18l9 -4l2 -11q0 -12 -25 -34q-30 -27 -34 -32q-39 -60 -39 -617q0 -18 -1 -65t-1 -73q0 -190 40 -288q57 -143 206 -143q239 0 239 382q0 66 1 196.5t1 195.5q0 183 2 163q-8 123 -53 123 q-55 0 -55 -48q0 -45 36.5 -52t36.5 -25q0 -43 -36 -70q-33 -23 -78 -23q-88 0 -145 88q-48 77 -48 169q0 106 76 174q73 67 181 67q209 0 283 -193q46 -119 46 -368q0 -106 -9 -317.5t-9 -316.5q0 -188 33 -233q3 -4 34 -29q25 -21 25 -31l-2 -12q-13 -3 -29 -3 q-17 0 -52 4t-53 4q-32 0 -96 -11t-96 -11l-6 2q-1 3 -1 15q0 24 -19 24q-12 0 -127 -44t-199 -44q-285 0 -373 263q-45 137 -45 496l1 286v190q-6 137 -34 177q-3 5 -32 31q-24 22 -24 32zM635 1568q74 91 148 183q108 117 184 117q30 0 56.5 -25.5t26.5 -55.5 q0 -60 -94 -129q-71 -45 -141 -90h-180z" />
<glyph unicode="&#xfb;" horiz-adv-x="1305" d="M110 1415q0 18 25 18q35 0 106.5 -5.5t107.5 -5.5q34 0 106 5q69 5 106 4h18l9 -4l2 -11q0 -12 -25 -34q-30 -27 -34 -32q-39 -60 -39 -617q0 -18 -1 -65t-1 -73q0 -190 40 -288q57 -143 206 -143q239 0 239 382q0 66 1 196.5t1 195.5q0 183 2 163q-8 123 -53 123 q-55 0 -55 -48q0 -45 36.5 -52t36.5 -25q0 -43 -36 -70q-33 -23 -78 -23q-88 0 -145 88q-48 77 -48 169q0 106 76 174q73 67 181 67q209 0 283 -193q46 -119 46 -368q0 -106 -9 -317.5t-9 -316.5q0 -188 33 -233q3 -4 34 -29q25 -21 25 -31l-2 -12q-13 -3 -29 -3 q-17 0 -52 4t-53 4q-32 0 -96 -11t-96 -11l-6 2q-1 3 -1 15q0 24 -19 24q-12 0 -127 -44t-199 -44q-285 0 -373 263q-45 137 -45 496l1 286v190q-6 137 -34 177q-3 5 -32 31q-24 22 -24 32zM353 1568l158 186q54 63 74 79q44 35 101 35t101 -34q22 -17 75 -80l156 -186h-179 l-153 100l-154 -100h-179z" />
<glyph unicode="&#xfc;" horiz-adv-x="1305" d="M110 1415q0 18 25 18q35 0 106.5 -5.5t107.5 -5.5q34 0 106 5q69 5 106 4h18l9 -4l2 -11q0 -12 -25 -34q-30 -27 -34 -32q-39 -60 -39 -617q0 -18 -1 -65t-1 -73q0 -190 40 -288q57 -143 206 -143q239 0 239 382q0 66 1 196.5t1 195.5q0 183 2 163q-8 123 -53 123 q-55 0 -55 -48q0 -45 36.5 -52t36.5 -25q0 -43 -36 -70q-33 -23 -78 -23q-88 0 -145 88q-48 77 -48 169q0 106 76 174q73 67 181 67q209 0 283 -193q46 -119 46 -368q0 -106 -9 -317.5t-9 -316.5q0 -188 33 -233q3 -4 34 -29q25 -21 25 -31l-2 -12q-13 -3 -29 -3 q-17 0 -52 4t-53 4q-32 0 -96 -11t-96 -11l-6 2q-1 3 -1 15q0 24 -19 24q-12 0 -127 -44t-199 -44q-285 0 -373 263q-45 137 -45 496l1 286v190q-6 137 -34 177q-3 5 -32 31q-24 22 -24 32zM386 1690q0 53 34.5 86.5t88.5 33.5q46 0 83.5 -35t37.5 -81q0 -52 -33 -90 t-85 -38t-89 36t-37 88zM752 1690q0 53 34.5 86.5t88.5 33.5q46 0 83.5 -35.5t37.5 -80.5q0 -52 -33.5 -90t-84.5 -38q-53 0 -89.5 35.5t-36.5 88.5z" />
<glyph unicode="&#xff;" horiz-adv-x="1147" d="M39 1411q-2 22 26 22q35 0 106.5 -5.5t107.5 -5.5q30 0 94 5q61 5 93 4h19l9 -4l2 -11q0 -9 -18 -27.5t-18 -56.5q0 -83 94 -303l138 -308q218 353 218 422q0 20 -14 38.5t-34 18.5q-59 0 -59 -57q0 -21 24.5 -41t24.5 -27q0 -25 -34 -40q-27 -12 -55 -12q-67 0 -112 68 q-41 60 -41 130q0 101 79 169q76 65 179 65q115 0 196 -74q83 -77 83 -191q0 -98 -129 -346l-166 -294q-51 -94 -51 -304q0 -122 32 -168q3 -4 33 -30q24 -22 24 -31q0 -18 -19 -18q-37 0 -111 5t-111 5q-33 0 -102.5 -5t-105.5 -4h-21l-9 4l-1 11q0 11 25 34q30 28 34 34 q31 49 31 172q0 141 -55 282l-258 665q-31 80 -54 113q-27 38 -89 85zM269 1650q0 49 32 85t81 36q53 0 91 -30q40 -33 40 -85t-33.5 -90.5t-86.5 -38.5q-51 0 -87.5 36t-36.5 87zM635 1651q0 48 32 84t81 36q53 0 90 -31q41 -32 41 -84q0 -53 -33.5 -91t-86.5 -38 q-52 0 -88 35.5t-36 88.5z" />
<glyph unicode="&#x152;" horiz-adv-x="2250" d="M121 775q0 319 214 526q213 204 535 204q176 0 344 -74q30 -1 106 -5q67 -5 105 -5q82 0 243.5 18.5t241.5 18.5q82 0 132 -38q56 -43 56 -122q0 -107 -86 -179q-82 -68 -191 -68q-124 0 -128 49q77 46 77 109q0 102 -116 102q-39 0 -55 -13q-17 -110 -17 -313v-37 q97 -107 221 -107q157 0 248 134q17 -66 17 -128q0 -111 -64 -189q-69 -84 -177 -84q-95 0 -167 63q-39 36 -77 73q-6 -11 -6 -103q0 -461 163 -461q52 0 88 27q41 30 41 80q0 29 -19.5 56t-47.5 27q-25 0 -67 -21q51 168 242 168q117 0 182 -72q61 -69 61 -186 q0 -137 -114 -204q-93 -55 -240 -55q-75 0 -222.5 21.5t-222.5 21.5q-40 0 -108 -4q-79 -4 -108 -5q-125 -62 -291 -62q-359 0 -579 242q-214 234 -214 595zM462 804q0 -242 115 -427q134 -217 363 -217t346 227l2 156q-49 -78 -133 -127q-87 -50 -177 -50q-130 0 -215 102 q-80 96 -80 229q0 121 78 214q83 100 202 100q63 0 108 -36q49 -38 49 -99q0 -124 -70 -118l-9 1q-44 65 -73 65q-86 0 -86 -89q0 -52 50 -84q43 -28 98 -28q109 0 180 82q67 78 67 189q0 179 -115.5 288t-296.5 109q-198 0 -306 -149q-97 -133 -97 -338z" />
<glyph unicode="&#x153;" horiz-adv-x="2250" d="M121 775q0 319 214 526q213 204 535 204q176 0 344 -74q30 -1 106 -5q67 -5 105 -5q82 0 243.5 18.5t241.5 18.5q82 0 132 -38q56 -43 56 -122q0 -107 -86 -179q-82 -68 -191 -68q-124 0 -128 49q77 46 77 109q0 102 -116 102q-39 0 -55 -13q-17 -110 -17 -313v-37 q97 -107 221 -107q157 0 248 134q17 -66 17 -128q0 -111 -64 -189q-69 -84 -177 -84q-95 0 -167 63q-39 36 -77 73q-6 -11 -6 -103q0 -461 163 -461q52 0 88 27q41 30 41 80q0 29 -19.5 56t-47.5 27q-25 0 -67 -21q51 168 242 168q117 0 182 -72q61 -69 61 -186 q0 -137 -114 -204q-93 -55 -240 -55q-75 0 -222.5 21.5t-222.5 21.5q-40 0 -108 -4q-79 -4 -108 -5q-125 -62 -291 -62q-359 0 -579 242q-214 234 -214 595zM462 804q0 -242 115 -427q134 -217 363 -217t346 227l2 156q-49 -78 -133 -127q-87 -50 -177 -50q-130 0 -215 102 q-80 96 -80 229q0 121 78 214q83 100 202 100q63 0 108 -36q49 -38 49 -99q0 -124 -70 -118l-9 1q-44 65 -73 65q-86 0 -86 -89q0 -52 50 -84q43 -28 98 -28q109 0 180 82q67 78 67 189q0 179 -115.5 288t-296.5 109q-198 0 -306 -149q-97 -133 -97 -338z" />
<glyph unicode="&#x178;" horiz-adv-x="1147" d="M39 1411q-2 22 26 22q35 0 106.5 -5.5t107.5 -5.5q30 0 94 5q61 5 93 4h19l9 -4l2 -11q0 -9 -18 -27.5t-18 -56.5q0 -83 94 -303l138 -308q218 353 218 422q0 20 -14 38.5t-34 18.5q-59 0 -59 -57q0 -21 24.5 -41t24.5 -27q0 -25 -34 -40q-27 -12 -55 -12q-67 0 -112 68 q-41 60 -41 130q0 101 79 169q76 65 179 65q115 0 196 -74q83 -77 83 -191q0 -98 -129 -346l-166 -294q-51 -94 -51 -304q0 -122 32 -168q3 -4 33 -30q24 -22 24 -31q0 -18 -19 -18q-37 0 -111 5t-111 5q-33 0 -102.5 -5t-105.5 -4h-21l-9 4l-1 11q0 11 25 34q30 28 34 34 q31 49 31 172q0 141 -55 282l-258 665q-31 80 -54 113q-27 38 -89 85zM545 1529q74 91 149 182q109 118 184 118q30 0 56 -25.5t26 -54.5q0 -60 -95 -130q-70 -45 -141 -90h-179z" />
<glyph unicode="&#x2c6;" horiz-adv-x="654" d="M43 1568l157 186q52 62 74 79q45 35 101 35q57 0 101 -34q20 -16 75 -80l158 -186h-179l-155 100l-153 -100h-179z" />
<glyph unicode="&#x2dc;" horiz-adv-x="688" d="M100 1594q0 -74 42 -74q31 0 35 23q-1 -6 -1 46q0 48 48 48q58 0 172 -54t181 -54q134 0 134 174q0 41 -17 82q-21 51 -57 51q-33 0 -33 -29l16.5 -35t16.5 -61q0 -29 -23.5 -47.5t-53.5 -18.5q-36 0 -129.5 64.5t-154.5 64.5q-75 0 -125.5 -52.5t-50.5 -127.5z" />
<glyph unicode="&#x2000;" horiz-adv-x="998" />
<glyph unicode="&#x2001;" horiz-adv-x="1997" />
<glyph unicode="&#x2002;" horiz-adv-x="998" />
<glyph unicode="&#x2003;" horiz-adv-x="1997" />
<glyph unicode="&#x2004;" horiz-adv-x="665" />
<glyph unicode="&#x2005;" horiz-adv-x="499" />
<glyph unicode="&#x2006;" horiz-adv-x="332" />
<glyph unicode="&#x2007;" horiz-adv-x="332" />
<glyph unicode="&#x2008;" horiz-adv-x="249" />
<glyph unicode="&#x2009;" horiz-adv-x="399" />
<glyph unicode="&#x200a;" horiz-adv-x="110" />
<glyph unicode="&#x2010;" horiz-adv-x="699" d="M98 451q11 76 11 126q0 54 -11 137q163 -10 295 -10q147 0 299 10q-11 -79 -11 -128q0 -55 11 -135q-163 9 -287 9q-144 0 -307 -9z" />
<glyph unicode="&#x2011;" horiz-adv-x="699" d="M98 451q11 76 11 126q0 54 -11 137q163 -10 295 -10q147 0 299 10q-11 -79 -11 -128q0 -55 11 -135q-163 9 -287 9q-144 0 -307 -9z" />
<glyph unicode="&#x2012;" horiz-adv-x="699" d="M98 451q11 76 11 126q0 54 -11 137q163 -10 295 -10q147 0 299 10q-11 -79 -11 -128q0 -55 11 -135q-163 9 -287 9q-144 0 -307 -9z" />
<glyph unicode="&#x2013;" horiz-adv-x="1313" d="M98 451q11 75 11 126q0 55 -11 137q311 -8 612 -8t595 8q-12 -77 -12 -128q0 -56 12 -135q-293 7 -593 7q-299 0 -614 -7z" />
<glyph unicode="&#x2014;" horiz-adv-x="1779" d="M98 451q11 74 11 126q0 56 -11 137q431 -7 848 -7t824 7q-11 -76 -11 -128q0 -57 11 -135q-406 6 -823 6q-414 0 -849 -6z" />
<glyph unicode="&#x2018;" horiz-adv-x="406" d="M102 1172q0 173 247 334l38 -45q-108 -85 -134 -148q144 -42 144 -154q0 -64 -43.5 -104.5t-108.5 -40.5q-56 0 -99.5 51t-43.5 107z" />
<glyph unicode="&#x2019;" horiz-adv-x="406" d="M111 1358q0 64 41.5 104t105.5 40q57 0 102 -49t45 -106q0 -172 -247 -335l-37 45q107 85 132 149q-142 41 -142 152z" />
<glyph unicode="&#x201a;" horiz-adv-x="406" d="M111 150q0 63 41.5 103.5t105.5 40.5q57 0 102 -49t45 -106q0 -173 -247 -335l-37 45q107 84 132 148q-142 42 -142 153z" />
<glyph unicode="&#x201c;" horiz-adv-x="825" d="M149 1172q0 173 247 334l36 -45q-54 -44 -76 -66q-39 -41 -56 -82q142 -42 142 -155q0 -64 -42.5 -104t-106.5 -40q-57 0 -101 52q-43 49 -43 106zM481 1171q0 172 247 335l37 -45q-106 -85 -131 -148q142 -42 142 -153q0 -64 -43 -105t-107 -41q-56 0 -100.5 50 t-44.5 107z" />
<glyph unicode="&#x201d;" horiz-adv-x="825" d="M139 1359q0 64 42.5 104t106.5 40q57 0 101 -50t44 -107q0 -173 -246 -334l-36 45q54 45 75 67q39 40 57 82q-144 42 -144 153zM473 1359q0 63 41.5 103.5t105.5 40.5q56 0 101.5 -49.5t45.5 -106.5q0 -172 -247 -335l-37 45q107 85 132 149q-142 41 -142 153z" />
<glyph unicode="&#x201e;" horiz-adv-x="825" d="M139 145q0 63 42.5 103t106.5 40q57 0 101 -49.5t44 -107.5q0 -173 -246 -333l-36 45q54 44 75 66q39 40 57 82q-144 42 -144 154zM473 144q0 63 41.5 103.5t105.5 40.5q56 0 101.5 -49t45.5 -106q0 -173 -247 -335l-37 45q107 84 132 148q-142 42 -142 153z" />
<glyph unicode="&#x2022;" horiz-adv-x="487" d="M138 580q0 68 48.5 120t115.5 52q72 0 128.5 -47t56.5 -118t-48.5 -125t-120.5 -54q-73 0 -126.5 50t-53.5 122z" />
<glyph unicode="&#x202f;" horiz-adv-x="399" />
<glyph unicode="&#x205f;" horiz-adv-x="499" />
<glyph unicode="&#x25fc;" horiz-adv-x="1455" d="M0 0v1455h1455v-1455h-1455z" />
</font>
</defs>
</svg>
